<svg width="25" height="29" viewBox="0 0 25 29" fill="none" xmlns="http://www.w3.org/2000/svg">
<path d="M22.5 13.3875V5.75C22.5 5.08696 22.2366 4.45107 21.7678 3.98223C21.2989 3.51339 20.663 3.25 20 3.25H14.775C14.25 1.8 12.875 0.75 11.25 0.75C9.625 0.75 8.25 1.8 7.725 3.25H2.5C1.125 3.25 0 4.375 0 5.75V23.25C0 23.913 0.263392 24.5489 0.732233 25.0178C1.20107 25.4866 1.83696 25.75 2.5 25.75H10.1375C11.7125 27.3 13.8625 28.25 16.25 28.25C21.0875 28.25 25 24.3375 25 19.5C25 17.1125 24.05 14.9625 22.5 13.3875ZM11.25 3.25C11.9375 3.25 12.5 3.8125 12.5 4.5C12.5 5.1875 11.9375 5.75 11.25 5.75C10.5625 5.75 10 5.1875 10 4.5C10 3.8125 10.5625 3.25 11.25 3.25ZM2.5 23.25V5.75H5V8.25H17.5V5.75H20V11.6C18.8625 11.0625 17.6 10.75 16.25 10.75H5V13.25H10.125C9.375 13.9625 8.8 14.8125 8.35 15.75H5V18.25H7.6C7.5375 18.6625 7.5 19.075 7.5 19.5C7.5 20.85 7.8125 22.1125 8.35 23.25H2.5ZM16.25 25.75C12.8 25.75 10 22.95 10 19.5C10 16.05 12.8 13.25 16.25 13.25C19.7 13.25 22.5 16.05 22.5 19.5C22.5 22.95 19.7 25.75 16.25 25.75ZM16.875 19.8125L20.45 21.925L19.5125 23.45L15 20.75V14.5H16.875V19.8125Z" fill="#C9C9CB"/>
</svg>
