<svg width="38" height="45" viewBox="0 0 38 45" fill="none" xmlns="http://www.w3.org/2000/svg">
<path d="M29.5 13.3875V5.75C29.5 5.08696 29.2366 4.45107 28.7678 3.98223C28.2989 3.51339 27.663 3.25 27 3.25H21.775C21.25 1.8 19.875 0.75 18.25 0.75C16.625 0.75 15.25 1.8 14.725 3.25H9.5C8.125 3.25 7 4.375 7 5.75V23.25C7 23.913 7.26339 24.5489 7.73223 25.0178C8.20107 25.4866 8.83696 25.75 9.5 25.75H17.1375C18.7125 27.3 20.8625 28.25 23.25 28.25C28.0875 28.25 32 24.3375 32 19.5C32 17.1125 31.05 14.9625 29.5 13.3875ZM18.25 3.25C18.9375 3.25 19.5 3.8125 19.5 4.5C19.5 5.1875 18.9375 5.75 18.25 5.75C17.5625 5.75 17 5.1875 17 4.5C17 3.8125 17.5625 3.25 18.25 3.25ZM9.5 23.25V5.75H12V8.25H24.5V5.75H27V11.6C25.8625 11.0625 24.6 10.75 23.25 10.75H12V13.25H17.125C16.375 13.9625 15.8 14.8125 15.35 15.75H12V18.25H14.6C14.5375 18.6625 14.5 19.075 14.5 19.5C14.5 20.85 14.8125 22.1125 15.35 23.25H9.5ZM23.25 25.75C19.8 25.75 17 22.95 17 19.5C17 16.05 19.8 13.25 23.25 13.25C26.7 13.25 29.5 16.05 29.5 19.5C29.5 22.95 26.7 25.75 23.25 25.75ZM23.875 19.8125L27.45 21.925L26.5125 23.45L22 20.75V14.5H23.875V19.8125Z" fill="#C9C9CB"/>
<path d="M8.31316 35.03V42H7.40316V38.84H3.85316V42H2.94316V35.03H3.85316V38.09H7.40316V35.03H8.31316ZM10.277 35.63C10.1037 35.63 9.95699 35.57 9.83699 35.45C9.71699 35.33 9.65699 35.1833 9.65699 35.01C9.65699 34.8367 9.71699 34.69 9.83699 34.57C9.95699 34.45 10.1037 34.39 10.277 34.39C10.4437 34.39 10.5837 34.45 10.697 34.57C10.817 34.69 10.877 34.8367 10.877 35.01C10.877 35.1833 10.817 35.33 10.697 35.45C10.5837 35.57 10.4437 35.63 10.277 35.63ZM10.717 36.52V42H9.80699V36.52H10.717ZM14.1479 42.09C13.7279 42.09 13.3513 42.02 13.0179 41.88C12.6846 41.7333 12.4213 41.5333 12.2279 41.28C12.0346 41.02 11.9279 40.7233 11.9079 40.39H12.8479C12.8746 40.6633 13.0013 40.8867 13.2279 41.06C13.4613 41.2333 13.7646 41.32 14.1379 41.32C14.4846 41.32 14.7579 41.2433 14.9579 41.09C15.1579 40.9367 15.2579 40.7433 15.2579 40.51C15.2579 40.27 15.1513 40.0933 14.9379 39.98C14.7246 39.86 14.3946 39.7433 13.9479 39.63C13.5413 39.5233 13.2079 39.4167 12.9479 39.31C12.6946 39.1967 12.4746 39.0333 12.2879 38.82C12.1079 38.6 12.0179 38.3133 12.0179 37.96C12.0179 37.68 12.1013 37.4233 12.2679 37.19C12.4346 36.9567 12.6713 36.7733 12.9779 36.64C13.2846 36.5 13.6346 36.43 14.0279 36.43C14.6346 36.43 15.1246 36.5833 15.4979 36.89C15.8713 37.1967 16.0713 37.6167 16.0979 38.15H15.1879C15.1679 37.8633 15.0513 37.6333 14.8379 37.46C14.6313 37.2867 14.3513 37.2 13.9979 37.2C13.6713 37.2 13.4113 37.27 13.2179 37.41C13.0246 37.55 12.9279 37.7333 12.9279 37.96C12.9279 38.14 12.9846 38.29 13.0979 38.41C13.2179 38.5233 13.3646 38.6167 13.5379 38.69C13.7179 38.7567 13.9646 38.8333 14.2779 38.92C14.6713 39.0267 14.9913 39.1333 15.2379 39.24C15.4846 39.34 15.6946 39.4933 15.8679 39.7C16.0479 39.9067 16.1413 40.1767 16.1479 40.51C16.1479 40.81 16.0646 41.08 15.8979 41.32C15.7313 41.56 15.4946 41.75 15.1879 41.89C14.8879 42.0233 14.5413 42.09 14.1479 42.09ZM18.4825 37.27V40.5C18.4825 40.7667 18.5392 40.9567 18.6525 41.07C18.7659 41.1767 18.9625 41.23 19.2425 41.23H19.9125V42H19.0925C18.5859 42 18.2059 41.8833 17.9525 41.65C17.6992 41.4167 17.5725 41.0333 17.5725 40.5V37.27H16.8625V36.52H17.5725V35.14H18.4825V36.52H19.9125V37.27H18.4825ZM23.3451 42.09C22.8318 42.09 22.3651 41.9733 21.9451 41.74C21.5318 41.5067 21.2051 41.1767 20.9651 40.75C20.7318 40.3167 20.6151 39.8167 20.6151 39.25C20.6151 38.69 20.7351 38.1967 20.9751 37.77C21.2218 37.3367 21.5551 37.0067 21.9751 36.78C22.3951 36.5467 22.8651 36.43 23.3851 36.43C23.9051 36.43 24.3751 36.5467 24.7951 36.78C25.2151 37.0067 25.5451 37.3333 25.7851 37.76C26.0318 38.1867 26.1551 38.6833 26.1551 39.25C26.1551 39.8167 26.0285 40.3167 25.7751 40.75C25.5285 41.1767 25.1918 41.5067 24.7651 41.74C24.3385 41.9733 23.8651 42.09 23.3451 42.09ZM23.3451 41.29C23.6718 41.29 23.9785 41.2133 24.2651 41.06C24.5518 40.9067 24.7818 40.6767 24.9551 40.37C25.1351 40.0633 25.2251 39.69 25.2251 39.25C25.2251 38.81 25.1385 38.4367 24.9651 38.13C24.7918 37.8233 24.5651 37.5967 24.2851 37.45C24.0051 37.2967 23.7018 37.22 23.3751 37.22C23.0418 37.22 22.7351 37.2967 22.4551 37.45C22.1818 37.5967 21.9618 37.8233 21.7951 38.13C21.6285 38.4367 21.5451 38.81 21.5451 39.25C21.5451 39.6967 21.6251 40.0733 21.7851 40.38C21.9518 40.6867 22.1718 40.9167 22.4451 41.07C22.7185 41.2167 23.0185 41.29 23.3451 41.29ZM28.2016 37.41C28.3616 37.0967 28.5883 36.8533 28.8816 36.68C29.1816 36.5067 29.5449 36.42 29.9716 36.42V37.36H29.7316C28.7116 37.36 28.2016 37.9133 28.2016 39.02V42H27.2916V36.52H28.2016V37.41ZM35.6821 36.52L32.3821 44.58H31.4421L32.5221 41.94L30.3121 36.52H31.3221L33.0421 40.96L34.7421 36.52H35.6821Z" fill="#C9C9CB"/>
</svg>
