<svg width="34" height="43" viewBox="0 0 34 43" fill="none" xmlns="http://www.w3.org/2000/svg">
<path d="M8.39488 34.05V41H7.25488V37.96H3.98488V41H2.84488V34.05H3.98488V37.03H7.25488V34.05H8.39488ZM12.2257 41.09C11.7057 41.09 11.2357 40.9733 10.8157 40.74C10.3957 40.5 10.0657 40.1667 9.82566 39.74C9.58566 39.3067 9.46566 38.8067 9.46566 38.24C9.46566 37.68 9.589 37.1833 9.83566 36.75C10.0823 36.3167 10.419 35.9833 10.8457 35.75C11.2723 35.5167 11.749 35.4 12.2757 35.4C12.8023 35.4 13.279 35.5167 13.7057 35.75C14.1323 35.9833 14.469 36.3167 14.7157 36.75C14.9623 37.1833 15.0857 37.68 15.0857 38.24C15.0857 38.8 14.959 39.2967 14.7057 39.73C14.4523 40.1633 14.1057 40.5 13.6657 40.74C13.2323 40.9733 12.7523 41.09 12.2257 41.09ZM12.2257 40.1C12.519 40.1 12.7923 40.03 13.0457 39.89C13.3057 39.75 13.5157 39.54 13.6757 39.26C13.8357 38.98 13.9157 38.64 13.9157 38.24C13.9157 37.84 13.839 37.5033 13.6857 37.23C13.5323 36.95 13.329 36.74 13.0757 36.6C12.8223 36.46 12.549 36.39 12.2557 36.39C11.9623 36.39 11.689 36.46 11.4357 36.6C11.189 36.74 10.9923 36.95 10.8457 37.23C10.699 37.5033 10.6257 37.84 10.6257 38.24C10.6257 38.8333 10.7757 39.2933 11.0757 39.62C11.3823 39.94 11.7657 40.1 12.2257 40.1ZM22.8226 35.4C23.256 35.4 23.6426 35.49 23.9826 35.67C24.3293 35.85 24.5993 36.1167 24.7926 36.47C24.9926 36.8233 25.0926 37.25 25.0926 37.75V41H23.9626V37.92C23.9626 37.4267 23.8393 37.05 23.5926 36.79C23.346 36.5233 23.0093 36.39 22.5826 36.39C22.156 36.39 21.816 36.5233 21.5626 36.79C21.316 37.05 21.1926 37.4267 21.1926 37.92V41H20.0626V37.92C20.0626 37.4267 19.9393 37.05 19.6926 36.79C19.446 36.5233 19.1093 36.39 18.6826 36.39C18.256 36.39 17.916 36.5233 17.6626 36.79C17.416 37.05 17.2926 37.4267 17.2926 37.92V41H16.1526V35.49H17.2926V36.12C17.4793 35.8933 17.716 35.7167 18.0026 35.59C18.2893 35.4633 18.596 35.4 18.9226 35.4C19.3626 35.4 19.756 35.4933 20.1026 35.68C20.4493 35.8667 20.716 36.1367 20.9026 36.49C21.0693 36.1567 21.3293 35.8933 21.6826 35.7C22.036 35.5 22.416 35.4 22.8226 35.4ZM31.5332 38.11C31.5332 38.3167 31.5199 38.5033 31.4932 38.67H27.2832C27.3166 39.11 27.4799 39.4633 27.7732 39.73C28.0666 39.9967 28.4266 40.13 28.8532 40.13C29.4666 40.13 29.8999 39.8733 30.1532 39.36H31.3832C31.2166 39.8667 30.9132 40.2833 30.4732 40.61C30.0399 40.93 29.4999 41.09 28.8532 41.09C28.3266 41.09 27.8532 40.9733 27.4332 40.74C27.0199 40.5 26.6932 40.1667 26.4532 39.74C26.2199 39.3067 26.1032 38.8067 26.1032 38.24C26.1032 37.6733 26.2166 37.1767 26.4432 36.75C26.6766 36.3167 26.9999 35.9833 27.4132 35.75C27.8332 35.5167 28.3132 35.4 28.8532 35.4C29.3732 35.4 29.8366 35.5133 30.2432 35.74C30.6499 35.9667 30.9666 36.2867 31.1932 36.7C31.4199 37.1067 31.5332 37.5767 31.5332 38.11ZM30.3432 37.75C30.3366 37.33 30.1866 36.9933 29.8932 36.74C29.5999 36.4867 29.2366 36.36 28.8032 36.36C28.4099 36.36 28.0732 36.4867 27.7932 36.74C27.5132 36.9867 27.3466 37.3233 27.2932 37.75H30.3432Z" fill="black"/>
<path d="M27.3166 10.7998C27.3166 10.4418 27.1744 10.0984 26.9212 9.84522C26.668 9.59205 26.3246 9.44981 25.9666 9.44981C25.6085 9.44981 25.2652 9.59205 25.012 9.84522C24.7588 10.0984 24.6166 10.4418 24.6166 10.7998H27.3166ZM8.41659 10.7998C8.41659 10.4418 8.27436 10.0984 8.02118 9.84522C7.76801 9.59205 7.42463 9.44981 7.06659 9.44981C6.70855 9.44981 6.36517 9.59205 6.11199 9.84522C5.85882 10.0984 5.71659 10.4418 5.71659 10.7998H8.41659ZM27.7121 14.4543C27.9667 14.7002 28.3078 14.8363 28.6617 14.8332C29.0157 14.8302 29.3543 14.6882 29.6046 14.4379C29.8549 14.1876 29.9969 13.849 29.9999 13.495C30.003 13.141 29.867 12.8 29.621 12.5454L27.7121 14.4543ZM16.5166 1.34973L17.471 0.395266C17.2179 0.142177 16.8746 0 16.5166 0C16.1586 0 15.8153 0.142177 15.5621 0.395266L16.5166 1.34973ZM3.41214 12.5454C3.2832 12.6699 3.18035 12.8189 3.1096 12.9836C3.03885 13.1483 3.00161 13.3255 3.00005 13.5047C2.99849 13.684 3.03265 13.8617 3.10053 14.0276C3.16841 14.1936 3.26865 14.3443 3.39541 14.471C3.52216 14.5978 3.67289 14.698 3.8388 14.7659C4.00471 14.8338 4.18248 14.868 4.36173 14.8664C4.54098 14.8649 4.71813 14.8276 4.88284 14.7569C5.04754 14.6861 5.19651 14.5833 5.32104 14.4543L3.41214 12.5454ZM9.76659 27H23.2666V24.3H9.76659V27ZM27.3166 22.95V10.7998H24.6166V22.95H27.3166ZM8.41659 22.95V10.7998H5.71659V22.95H8.41659ZM29.621 12.5454L17.471 0.395266L15.5621 2.30419L27.7121 14.4543L29.621 12.5454ZM15.5621 0.395266L3.41214 12.5454L5.32104 14.4543L17.471 2.30419L15.5621 0.395266ZM23.2666 27C24.3407 27 25.3708 26.5733 26.1304 25.8138C26.8899 25.0542 27.3166 24.0241 27.3166 22.95H24.6166C24.6166 23.308 24.4744 23.6514 24.2212 23.9046C23.968 24.1577 23.6246 24.3 23.2666 24.3V27ZM9.76659 24.3C9.40855 24.3 9.06517 24.1577 8.81199 23.9046C8.55882 23.6514 8.41659 23.308 8.41659 22.95H5.71659C5.71659 24.0241 6.14328 25.0542 6.90281 25.8138C7.66233 26.5733 8.69246 27 9.76659 27V24.3Z" fill="black"/>
</svg>
