<svg width="38" height="43" viewBox="0 0 38 43" fill="none" xmlns="http://www.w3.org/2000/svg">
<g clip-path="url(#clip0_87_472)">
<path d="M21.2 21.75C21.2 21.5511 21.1209 21.3603 20.9803 21.2197C20.8396 21.079 20.6489 21 20.45 21H15.95C15.751 21 15.5603 21.079 15.4196 21.2197C15.279 21.3603 15.2 21.5511 15.2 21.75C15.2 21.9489 15.279 22.1397 15.4196 22.2803C15.5603 22.421 15.751 22.5 15.95 22.5H20.45C20.6489 22.5 20.8396 22.421 20.9803 22.2803C21.1209 22.1397 21.2 21.9489 21.2 21.75Z" fill="#C9C9CB"/>
<path d="M21.905 18H17.405C17.2061 18 17.0154 18.079 16.8747 18.2197C16.734 18.3603 16.655 18.5511 16.655 18.75C16.655 18.9489 16.734 19.1397 16.8747 19.2803C17.0154 19.421 17.2061 19.5 17.405 19.5H21.905C22.1039 19.5 22.2947 19.421 22.4354 19.2803C22.576 19.1397 22.655 18.9489 22.655 18.75C22.655 18.5511 22.576 18.3603 22.4354 18.2197C22.2947 18.079 22.1039 18 21.905 18Z" fill="#C9C9CB"/>
<path d="M21.5 24H17C16.8011 24 16.6103 24.079 16.4697 24.2197C16.329 24.3603 16.25 24.5511 16.25 24.75C16.25 24.9489 16.329 25.1397 16.4697 25.2803C16.6103 25.421 16.8011 25.5 17 25.5H21.5C21.6989 25.5 21.8897 25.421 22.0303 25.2803C22.171 25.1397 22.25 24.9489 22.25 24.75C22.25 24.5511 22.171 24.3603 22.0303 24.2197C21.8897 24.079 21.6989 24 21.5 24Z" fill="#C9C9CB"/>
<path d="M29.525 24H24.275C24.0761 24 23.8853 24.079 23.7447 24.2197C23.604 24.3603 23.525 24.5511 23.525 24.75C23.525 24.9489 23.604 25.1397 23.7447 25.2803C23.8853 25.421 24.0761 25.5 24.275 25.5H29.525C29.7239 25.5 29.9147 25.421 30.0554 25.2803C30.196 25.1397 30.275 24.9489 30.275 24.75C30.275 24.5511 30.196 24.3603 30.0554 24.2197C29.9147 24.079 29.7239 24 29.525 24Z" fill="#C9C9CB"/>
<path d="M30.275 21H25.025C24.8261 21 24.6353 21.079 24.4947 21.2197C24.354 21.3603 24.275 21.5511 24.275 21.75C24.275 21.9489 24.354 22.1397 24.4947 22.2803C24.6353 22.421 24.8261 22.5 25.025 22.5H30.275C30.4739 22.5 30.6647 22.421 30.8054 22.2803C30.946 22.1397 31.025 21.9489 31.025 21.75C31.025 21.5511 30.946 21.3603 30.8054 21.2197C30.6647 21.079 30.4739 21 30.275 21Z" fill="#C9C9CB"/>
<path d="M30.305 19.5C30.0852 16.8592 29.3676 14.2839 28.19 11.91C27.062 9.7648 25.4367 7.92089 23.45 6.5325L25.25 2.565C25.3081 2.44643 25.3338 2.31464 25.3245 2.18295C25.3153 2.05126 25.2715 1.92434 25.1975 1.815C25.1293 1.71909 25.0394 1.6406 24.9351 1.58587C24.8309 1.53115 24.7152 1.50173 24.5975 1.5H12.35C12.224 1.49969 12.0998 1.53117 11.9891 1.59153C11.8784 1.65189 11.7847 1.73918 11.7167 1.84533C11.6487 1.95149 11.6085 2.07308 11.5999 2.19887C11.5913 2.32465 11.6146 2.45058 11.6675 2.565L13.505 6.5475C11.5323 7.93656 9.91796 9.77456 8.79503 11.91C7.18253 14.91 6.68003 18.5775 6.54503 21.12C6.52293 21.4922 6.57816 21.865 6.70724 22.2148C6.83632 22.5646 7.03645 22.8839 7.29503 23.1525C7.56705 23.4161 7.88889 23.6229 8.24173 23.7607C8.59458 23.8984 8.97136 23.9645 9.35003 23.955H14V22.5H9.29003C9.1203 22.4995 8.95242 22.4647 8.79647 22.3976C8.64053 22.3306 8.49973 22.2328 8.38253 22.11C8.26516 21.9882 8.17452 21.8432 8.1164 21.6844C8.05828 21.5255 8.03397 21.3563 8.04503 21.1875C8.15003 19.23 8.56253 15.5025 10.115 12.6C11.2095 10.5203 12.8278 8.76237 14.81 7.5H15.56C15.052 8.20326 14.5838 8.93441 14.1575 9.69C13.7243 10.4945 13.3556 11.3321 13.055 12.195L14.0825 12.885C14.3861 11.9895 14.7598 11.1193 15.2 10.2825C15.7404 9.30935 16.3547 8.37912 17.0375 7.5H17.7875C18.2903 8.70266 18.6454 9.96185 18.845 11.25C19.0081 12.2063 19.0884 13.1749 19.085 14.145L20.27 13.3125C20.2373 12.5582 20.1571 11.8067 20.03 11.0625C19.8279 9.84633 19.5064 8.65305 19.07 7.5H19.655L20.3375 6H14.9075L13.52 3H23.4275L21.5525 7.1025C21.8738 7.27482 22.1822 7.47034 22.475 7.6875C24.3132 8.95464 25.8205 10.6445 26.87 12.615C27.9219 14.7752 28.5749 17.1077 28.7975 19.5H30.305Z" fill="#C9C9CB"/>
</g>
<path d="M4.72281 41L3.06281 38.15H1.96281V41H1.05281V34.03H3.30281C3.82948 34.03 4.27281 34.12 4.63281 34.3C4.99948 34.48 5.27281 34.7233 5.45281 35.03C5.63281 35.3367 5.72281 35.6867 5.72281 36.08C5.72281 36.56 5.58281 36.9833 5.30281 37.35C5.02948 37.7167 4.61615 37.96 4.06281 38.08L5.81281 41H4.72281ZM1.96281 37.42H3.30281C3.79615 37.42 4.16615 37.3 4.41281 37.06C4.65948 36.8133 4.78281 36.4867 4.78281 36.08C4.78281 35.6667 4.65948 35.3467 4.41281 35.12C4.17281 34.8933 3.80281 34.78 3.30281 34.78H1.96281V37.42ZM12.0768 38.05C12.0768 38.2233 12.0668 38.4067 12.0468 38.6H7.6668C7.70013 39.14 7.88346 39.5633 8.2168 39.87C8.5568 40.17 8.9668 40.32 9.4468 40.32C9.84013 40.32 10.1668 40.23 10.4268 40.05C10.6935 39.8633 10.8801 39.6167 10.9868 39.31H11.9668C11.8201 39.8367 11.5268 40.2667 11.0868 40.6C10.6468 40.9267 10.1001 41.09 9.4468 41.09C8.9268 41.09 8.46013 40.9733 8.0468 40.74C7.64013 40.5067 7.32013 40.1767 7.0868 39.75C6.85346 39.3167 6.7368 38.8167 6.7368 38.25C6.7368 37.6833 6.85013 37.1867 7.0768 36.76C7.30346 36.3333 7.62013 36.0067 8.0268 35.78C8.44013 35.5467 8.91346 35.43 9.4468 35.43C9.9668 35.43 10.4268 35.5433 10.8268 35.77C11.2268 35.9967 11.5335 36.31 11.7468 36.71C11.9668 37.1033 12.0768 37.55 12.0768 38.05ZM11.1368 37.86C11.1368 37.5133 11.0601 37.2167 10.9068 36.97C10.7535 36.7167 10.5435 36.5267 10.2768 36.4C10.0168 36.2667 9.7268 36.2 9.4068 36.2C8.9468 36.2 8.55346 36.3467 8.2268 36.64C7.9068 36.9333 7.72346 37.34 7.6768 37.86H11.1368ZM20.518 35.52L18.808 41H17.868L16.548 36.65L15.228 41H14.288L12.568 35.52H13.498L14.758 40.12L16.118 35.52H17.048L18.378 40.13L19.618 35.52H20.518ZM21.0211 38.24C21.0211 37.68 21.1344 37.19 21.3611 36.77C21.5878 36.3433 21.8978 36.0133 22.2911 35.78C22.6911 35.5467 23.1344 35.43 23.6211 35.43C24.1011 35.43 24.5178 35.5333 24.8711 35.74C25.2244 35.9467 25.4878 36.2067 25.6611 36.52V35.52H26.5811V41H25.6611V39.98C25.4811 40.3 25.2111 40.5667 24.8511 40.78C24.4978 40.9867 24.0844 41.09 23.6111 41.09C23.1244 41.09 22.6844 40.97 22.2911 40.73C21.8978 40.49 21.5878 40.1533 21.3611 39.72C21.1344 39.2867 21.0211 38.7933 21.0211 38.24ZM25.6611 38.25C25.6611 37.8367 25.5778 37.4767 25.4111 37.17C25.2444 36.8633 25.0178 36.63 24.7311 36.47C24.4511 36.3033 24.1411 36.22 23.8011 36.22C23.4611 36.22 23.1511 36.3 22.8711 36.46C22.5911 36.62 22.3678 36.8533 22.2011 37.16C22.0344 37.4667 21.9511 37.8267 21.9511 38.24C21.9511 38.66 22.0344 39.0267 22.2011 39.34C22.3678 39.6467 22.5911 39.8833 22.8711 40.05C23.1511 40.21 23.4611 40.29 23.8011 40.29C24.1411 40.29 24.4511 40.21 24.7311 40.05C25.0178 39.8833 25.2444 39.6467 25.4111 39.34C25.5778 39.0267 25.6611 38.6633 25.6611 38.25ZM28.9689 36.41C29.1289 36.0967 29.3556 35.8533 29.6489 35.68C29.9489 35.5067 30.3122 35.42 30.7389 35.42V36.36H30.4989C29.4789 36.36 28.9689 36.9133 28.9689 38.02V41H28.0589V35.52H28.9689V36.41ZM31.3894 38.24C31.3894 37.68 31.5027 37.19 31.7294 36.77C31.956 36.3433 32.266 36.0133 32.6594 35.78C33.0594 35.5467 33.506 35.43 33.9994 35.43C34.426 35.43 34.8227 35.53 35.1894 35.73C35.556 35.9233 35.836 36.18 36.0294 36.5V33.6H36.9494V41H36.0294V39.97C35.8494 40.2967 35.5827 40.5667 35.2294 40.78C34.876 40.9867 34.4627 41.09 33.9894 41.09C33.5027 41.09 33.0594 40.97 32.6594 40.73C32.266 40.49 31.956 40.1533 31.7294 39.72C31.5027 39.2867 31.3894 38.7933 31.3894 38.24ZM36.0294 38.25C36.0294 37.8367 35.946 37.4767 35.7794 37.17C35.6127 36.8633 35.386 36.63 35.0994 36.47C34.8194 36.3033 34.5094 36.22 34.1694 36.22C33.8294 36.22 33.5194 36.3 33.2394 36.46C32.9594 36.62 32.736 36.8533 32.5694 37.16C32.4027 37.4667 32.3194 37.8267 32.3194 38.24C32.3194 38.66 32.4027 39.0267 32.5694 39.34C32.736 39.6467 32.9594 39.8833 33.2394 40.05C33.5194 40.21 33.8294 40.29 34.1694 40.29C34.5094 40.29 34.8194 40.21 35.0994 40.05C35.386 39.8833 35.6127 39.6467 35.7794 39.34C35.946 39.0267 36.0294 38.6633 36.0294 38.25Z" fill="#C9C9CB"/>
<defs>
<clipPath id="clip0_87_472">
<rect width="27" height="27" fill="white" transform="translate(5)"/>
</clipPath>
</defs>
</svg>
