<svg width="27" height="27" viewBox="0 0 27 27" fill="none" xmlns="http://www.w3.org/2000/svg">
<g clip-path="url(#clip0_245_294)">
<path d="M8.1 27C5.825 27 3.906 26.219 2.343 24.657C0.780001 23.095 -0.000999041 21.176 9.5908e-07 18.9C9.5908e-07 17.95 0.162501 17.025 0.487501 16.125C0.812501 15.225 1.275 14.4125 1.875 13.6875L7.2 7.275L4.65 2.175C4.4 1.675 4.419 1.1875 4.707 0.7125C4.995 0.2375 5.426 0 6 0H21C21.575 0 22.0065 0.2375 22.2945 0.7125C22.5825 1.1875 22.601 1.675 22.35 2.175L19.8 7.275L25.125 13.6875C25.725 14.4125 26.1875 15.225 26.5125 16.125C26.8375 17.025 27 17.95 27 18.9C27 21.175 26.2125 23.094 24.6375 24.657C23.0625 26.22 21.15 27.001 18.9 27H8.1ZM13.5 19.5C12.675 19.5 11.969 19.2065 11.382 18.6195C10.795 18.0325 10.501 17.326 10.5 16.5C10.499 15.674 10.793 14.968 11.382 14.382C11.971 13.796 12.677 13.502 13.5 13.5C14.323 13.498 15.0295 13.792 15.6195 14.382C16.2095 14.972 16.503 15.678 16.5 16.5C16.497 17.322 16.2035 18.0285 15.6195 18.6195C15.0355 19.2105 14.329 19.504 13.5 19.5ZM9.9375 6H17.0625L18.5625 3H8.4375L9.9375 6ZM8.1 24H18.9C20.325 24 21.5315 23.5065 22.5195 22.5195C23.5075 21.5325 24.001 20.326 24 18.9C24 18.3 23.8935 17.719 23.6805 17.157C23.4675 16.595 23.174 16.0885 22.8 15.6375L17.2875 9H9.75L4.2 15.6C3.825 16.05 3.5315 16.5625 3.3195 17.1375C3.1075 17.7125 3.001 18.3 3 18.9C3 20.325 3.494 21.5315 4.482 22.5195C5.47 23.5075 6.676 24.001 8.1 24Z" fill="#C9C9CB"/>
</g>
<defs>
<clipPath id="clip0_245_294">
<rect width="27" height="27" fill="white"/>
</clipPath>
</defs>
</svg>
