<svg width="38" height="40" viewBox="0 0 38 40" fill="none" xmlns="http://www.w3.org/2000/svg">
<path d="M16.1667 22H10.3333C9.71449 22 9.121 21.7234 8.68342 21.2312C8.24583 20.7389 8 20.0712 8 19.375V7.5625C8 6.86631 8.24583 6.19863 8.68342 5.70634C9.121 5.21406 9.71449 4.9375 10.3333 4.9375H11.5C12.1188 4.9375 12.7123 4.66094 13.1499 4.16866C13.5875 3.67637 13.8333 3.00869 13.8333 2.3125C13.8333 1.9644 13.9562 1.63056 14.175 1.38442C14.3938 1.13828 14.6906 1 15 1H22C22.3094 1 22.6062 1.13828 22.825 1.38442C23.0437 1.63056 23.1667 1.9644 23.1667 2.3125C23.1667 3.00869 23.4125 3.67637 23.8501 4.16866C24.2877 4.66094 24.8812 4.9375 25.5 4.9375H26.6667C27.2855 4.9375 27.879 5.21406 28.3166 5.70634C28.7542 6.19863 29 6.86631 29 7.5625V10.1875" stroke="white" stroke-width="2" stroke-linecap="round" stroke-linejoin="round"/>
<path d="M21.7771 10.005C21.6566 10.018 21.5439 10.0713 21.4574 10.1563L18.9173 12.6964H17.5383C17.2417 12.6964 17 12.9381 17 13.2346V14.3112C17 14.6078 17.2417 14.8494 17.5383 14.8494H17.6728L18.9006 22.2339V22.2673C18.9884 22.6915 19.1531 23.0968 19.4561 23.4284C19.6185 23.6063 19.8159 23.7489 20.0358 23.8472C20.2558 23.9456 20.4936 23.9976 20.7345 24H25.1074C25.3471 23.9997 25.5842 23.9503 25.804 23.8549C26.0239 23.7594 26.2219 23.62 26.3858 23.445C26.6931 23.114 26.8611 22.6888 26.9413 22.2506V22.2339L28.1852 14.8494H28.3036C28.6002 14.8494 28.8419 14.6078 28.8419 14.3112V13.2346C28.8419 12.9381 28.6002 12.6964 28.3036 12.6964H27.4623L25.9487 10.8124C25.9037 10.7539 25.8446 10.7077 25.7769 10.6782C25.7093 10.6488 25.6352 10.637 25.5617 10.644C25.4958 10.6519 25.4326 10.6749 25.3771 10.7112L23.8295 11.7544L22.2304 10.1563C22.1716 10.098 22.1002 10.054 22.0217 10.0277C21.9432 10.0015 21.8597 9.99374 21.7777 10.005H21.7771ZM21.8444 11.3173L23.224 12.6964H20.4643L21.8444 11.3173ZM25.5283 11.6704L26.3524 12.6964H24.771L24.4518 12.3766L25.5283 11.6704ZM18.7494 14.8494H19.1197L19.7586 15.4889L18.9846 16.2457L18.7494 14.8494ZM19.8765 14.8494H20.3809L20.1284 15.1019L19.8765 14.8494ZM21.121 14.8494H22.0296L22.5172 15.3371L21.4407 16.4137L20.4987 15.4717L21.121 14.8494ZM22.8031 14.8494H22.9882L22.9043 14.9506L22.8025 14.8494H22.8031ZM23.7617 14.8494H24.6703L25.2926 15.4717L24.3506 16.4137L23.2741 15.3204L23.7617 14.8494ZM25.4104 14.8494H25.9153L25.6623 15.1019L25.4104 14.8494ZM26.6721 14.8494H27.1092L26.874 16.2963L26.0494 15.4717L26.6721 14.8494ZM22.887 15.7074L23.9808 16.784L22.8876 17.8605L21.811 16.784L22.887 15.7074ZM20.129 15.8587L21.0537 16.784L19.9772 17.8605L19.1025 16.9858L19.0858 16.9019L20.129 15.8587ZM25.6623 15.8587L26.7389 16.9352L25.8141 17.8772L24.7376 16.784L25.6623 15.8587ZM21.4407 17.171L22.5172 18.2475L21.4407 19.3241L20.3642 18.2475L21.4407 17.171ZM24.3506 17.171L25.4438 18.2475L24.3673 19.3241L23.2746 18.2475L24.3506 17.171ZM26.6049 17.8438L26.487 18.55L26.1839 18.247L26.6049 17.8438ZM19.2537 17.8939L19.6074 18.247L19.3549 18.5L19.2537 17.8939ZM19.9777 18.6173L21.0542 19.6939L19.9777 20.7871L19.6752 20.4846L19.4561 19.1389L19.9777 18.6173ZM22.8881 18.6173L23.9808 19.7105L22.9043 20.7871L21.8116 19.6939L22.8881 18.6173ZM25.8147 18.6173L26.3869 19.1895L26.1678 20.4167L25.8147 20.7704L24.7381 19.6939L25.8147 18.6173ZM21.4412 20.0809L22.5178 21.1574L21.4412 22.2506L20.3647 21.1741L21.4412 20.0809ZM24.3511 20.0809L25.4277 21.1574L24.3511 22.2339L23.2746 21.1574L24.3511 20.0809ZM19.9944 21.5439L21.0709 22.6204L20.7679 22.9235H20.734C20.5235 22.9235 20.3997 22.8535 20.2635 22.7049C20.1044 22.5224 19.9944 22.3023 19.9438 22.0655V22.0488L19.8765 21.6451L19.9938 21.5439H19.9944ZM22.9048 21.5439L23.9813 22.6204L23.6783 22.9235H22.1135L21.8105 22.6204L22.9043 21.5439H22.9048ZM25.8147 21.5439L25.9659 21.6957L25.8986 22.0488C25.8976 22.0542 25.8997 22.0595 25.8986 22.0655C25.8475 22.3292 25.7286 22.5617 25.5961 22.7049C25.4605 22.8503 25.3222 22.9235 25.1079 22.9235H25.0406L24.7381 22.6204L25.8147 21.5439Z" fill="white"/>
<path d="M7.7034 38.07C7.21673 38.07 6.77673 37.9867 6.3834 37.82C5.99673 37.6533 5.69007 37.4133 5.4634 37.1C5.23673 36.7867 5.12007 36.4167 5.1134 35.99H6.6134C6.6334 36.2767 6.7334 36.5033 6.9134 36.67C7.10007 36.8367 7.3534 36.92 7.6734 36.92C8.00007 36.92 8.25673 36.8433 8.4434 36.69C8.63007 36.53 8.7234 36.3233 8.7234 36.07C8.7234 35.8633 8.66007 35.6933 8.5334 35.56C8.40673 35.4267 8.24673 35.3233 8.0534 35.25C7.86673 35.17 7.60673 35.0833 7.2734 34.99C6.82007 34.8567 6.45007 34.7267 6.1634 34.6C5.8834 34.4667 5.64007 34.27 5.4334 34.01C5.2334 33.7433 5.1334 33.39 5.1334 32.95C5.1334 32.5367 5.23673 32.1767 5.4434 31.87C5.65007 31.5633 5.94007 31.33 6.3134 31.17C6.68673 31.0033 7.1134 30.92 7.5934 30.92C8.3134 30.92 8.89673 31.0967 9.3434 31.45C9.79673 31.7967 10.0467 32.2833 10.0934 32.91H8.5534C8.54007 32.67 8.43673 32.4733 8.2434 32.32C8.05673 32.16 7.80673 32.08 7.4934 32.08C7.22007 32.08 7.00007 32.15 6.8334 32.29C6.6734 32.43 6.5934 32.6333 6.5934 32.9C6.5934 33.0867 6.6534 33.2433 6.7734 33.37C6.90007 33.49 7.0534 33.59 7.2334 33.67C7.42007 33.7433 7.68007 33.83 8.0134 33.93C8.46673 34.0633 8.83673 34.1967 9.1234 34.33C9.41007 34.4633 9.65673 34.6633 9.8634 34.93C10.0701 35.1967 10.1734 35.5467 10.1734 35.98C10.1734 36.3533 10.0767 36.7 9.8834 37.02C9.69007 37.34 9.40673 37.5967 9.0334 37.79C8.66007 37.9767 8.21673 38.07 7.7034 38.07ZM10.9671 35.23C10.9671 34.6567 11.0838 34.1567 11.3171 33.73C11.5505 33.2967 11.8738 32.9633 12.2871 32.73C12.7005 32.49 13.1738 32.37 13.7071 32.37C14.3938 32.37 14.9605 32.5433 15.4071 32.89C15.8605 33.23 16.1638 33.71 16.3171 34.33H14.8071C14.7271 34.09 14.5905 33.9033 14.3971 33.77C14.2105 33.63 13.9771 33.56 13.6971 33.56C13.2971 33.56 12.9805 33.7067 12.7471 34C12.5138 34.2867 12.3971 34.6967 12.3971 35.23C12.3971 35.7567 12.5138 36.1667 12.7471 36.46C12.9805 36.7467 13.2971 36.89 13.6971 36.89C14.2638 36.89 14.6338 36.6367 14.8071 36.13H16.3171C16.1638 36.73 15.8605 37.2067 15.4071 37.56C14.9538 37.9133 14.3871 38.09 13.7071 38.09C13.1738 38.09 12.7005 37.9733 12.2871 37.74C11.8738 37.5 11.5505 37.1667 11.3171 36.74C11.0838 36.3067 10.9671 35.8033 10.9671 35.23ZM16.9228 35.21C16.9228 34.65 17.0328 34.1533 17.2528 33.72C17.4794 33.2867 17.7828 32.9533 18.1628 32.72C18.5494 32.4867 18.9794 32.37 19.4528 32.37C19.8661 32.37 20.2261 32.4533 20.5328 32.62C20.8461 32.7867 21.0961 32.9967 21.2828 33.25V32.46H22.6928V38H21.2828V37.19C21.1028 37.45 20.8528 37.6667 20.5328 37.84C20.2194 38.0067 19.8561 38.09 19.4428 38.09C18.9761 38.09 18.5494 37.97 18.1628 37.73C17.7828 37.49 17.4794 37.1533 17.2528 36.72C17.0328 36.28 16.9228 35.7767 16.9228 35.21ZM21.2828 35.23C21.2828 34.89 21.2161 34.6 21.0828 34.36C20.9494 34.1133 20.7694 33.9267 20.5428 33.8C20.3161 33.6667 20.0728 33.6 19.8128 33.6C19.5528 33.6 19.3128 33.6633 19.0928 33.79C18.8728 33.9167 18.6928 34.1033 18.5528 34.35C18.4194 34.59 18.3528 34.8767 18.3528 35.21C18.3528 35.5433 18.4194 35.8367 18.5528 36.09C18.6928 36.3367 18.8728 36.5267 19.0928 36.66C19.3194 36.7933 19.5594 36.86 19.8128 36.86C20.0728 36.86 20.3161 36.7967 20.5428 36.67C20.7694 36.5367 20.9494 36.35 21.0828 36.11C21.2161 35.8633 21.2828 35.57 21.2828 35.23ZM27.0701 32.38C27.7301 32.38 28.2634 32.59 28.6701 33.01C29.0768 33.4233 29.2801 34.0033 29.2801 34.75V38H27.8801V34.94C27.8801 34.5 27.7701 34.1633 27.5501 33.93C27.3301 33.69 27.0301 33.57 26.6501 33.57C26.2634 33.57 25.9568 33.69 25.7301 33.93C25.5101 34.1633 25.4001 34.5 25.4001 34.94V38H24.0001V32.46H25.4001V33.15C25.5868 32.91 25.8234 32.7233 26.1101 32.59C26.4034 32.45 26.7234 32.38 27.0701 32.38ZM32.3614 30.9L32.2014 35.73H31.0214L30.8514 30.9H32.3614ZM31.6414 38.07C31.3881 38.07 31.1781 37.9933 31.0114 37.84C30.8514 37.68 30.7714 37.4833 30.7714 37.25C30.7714 37.0167 30.8514 36.8233 31.0114 36.67C31.1781 36.51 31.3881 36.43 31.6414 36.43C31.8881 36.43 32.0914 36.51 32.2514 36.67C32.4114 36.8233 32.4914 37.0167 32.4914 37.25C32.4914 37.4833 32.4114 37.68 32.2514 37.84C32.0914 37.9933 31.8881 38.07 31.6414 38.07Z" fill="white"/>
</svg>
