<svg width="27" height="29" viewBox="0 0 27 29" fill="none" xmlns="http://www.w3.org/2000/svg">
<path d="M24.794 15.4069C24.5737 15.1561 24.4522 14.8337 24.4522 14.5C24.4522 14.1662 24.5737 13.8438 24.794 13.593L26.5528 11.6143C26.7467 11.3981 26.867 11.1261 26.8966 10.8372C26.9263 10.5484 26.8636 10.2576 26.7177 10.0066L23.9695 5.25209C23.8251 5.00135 23.6052 4.80259 23.3412 4.68415C23.0772 4.56571 22.7825 4.53364 22.4992 4.59251L19.9158 5.11468C19.5871 5.1826 19.2449 5.12786 18.9538 4.96078C18.6627 4.7937 18.4428 4.52585 18.3356 4.20776L17.4974 1.69311C17.4052 1.42018 17.2295 1.18312 16.9953 1.01545C16.761 0.847774 16.48 0.757961 16.1919 0.758705H10.6954C10.3958 0.743064 10.0993 0.825936 9.85113 0.994661C9.603 1.16339 9.41692 1.40869 9.32131 1.69311L8.5518 4.20776C8.44462 4.52585 8.22472 4.7937 7.9336 4.96078C7.64248 5.12786 7.30027 5.1826 6.97156 5.11468L4.3195 4.59251C4.05092 4.55456 3.77713 4.59694 3.5326 4.71432C3.28807 4.83169 3.08375 5.01881 2.94537 5.25209L0.19712 10.0066C0.0475599 10.2548 -0.019687 10.544 0.00499295 10.8327C0.0296729 11.1215 0.145016 11.395 0.334532 11.6143L2.07967 13.593C2.29997 13.8438 2.42146 14.1662 2.42146 14.5C2.42146 14.8337 2.29997 15.1561 2.07967 15.4069L0.334532 17.3856C0.145016 17.6049 0.0296729 17.8784 0.00499295 18.1672C-0.019687 18.4559 0.0475599 18.7451 0.19712 18.9934L2.94537 23.7478C3.08979 23.9986 3.30968 24.1973 3.57369 24.3158C3.83771 24.4342 4.13237 24.4663 4.41569 24.4074L6.99904 23.8852C7.32776 23.8173 7.66996 23.8721 7.96108 24.0391C8.2522 24.2062 8.47211 24.4741 8.57929 24.7922L9.4175 27.3068C9.51311 27.5912 9.69919 27.8365 9.94732 28.0053C10.1954 28.174 10.492 28.2569 10.7916 28.2412H16.2881C16.5762 28.242 16.8572 28.1521 17.0915 27.9845C17.3257 27.8168 17.5014 27.5797 17.5935 27.3068L18.4318 24.7922C18.5389 24.4741 18.7588 24.2062 19.05 24.0391C19.3411 23.8721 19.6833 23.8173 20.012 23.8852L22.5954 24.4074C22.8787 24.4663 23.1733 24.4342 23.4374 24.3158C23.7014 24.1973 23.9213 23.9986 24.0657 23.7478L26.8139 18.9934C26.9598 18.7423 27.0225 18.4515 26.9928 18.1627C26.9632 17.8738 26.8429 17.6018 26.649 17.3856L24.794 15.4069ZM22.7465 17.2482L23.8458 18.4849L22.0869 21.5355L20.4655 21.2057C19.4758 21.0034 18.4463 21.1715 17.5724 21.6781C16.6985 22.1847 16.041 22.9946 15.7247 23.9539L15.2026 25.493H11.6848L11.1901 23.9265C10.8739 22.9671 10.2164 22.1573 9.34248 21.6506C8.46857 21.144 7.43906 20.9759 6.44939 21.1782L4.82792 21.508L3.04156 18.4712L4.14086 17.2345C4.81687 16.4787 5.1906 15.5002 5.1906 14.4862C5.1906 13.4722 4.81687 12.4938 4.14086 11.738L3.04156 10.5013L4.80044 7.47818L6.42191 7.80797C7.41158 8.01027 8.44109 7.84216 9.315 7.33554C10.1889 6.82893 10.8464 6.01908 11.1626 5.05972L11.6848 3.50696H15.2026L15.7247 5.07346C16.041 6.03282 16.6985 6.84267 17.5724 7.34928C18.4463 7.8559 19.4758 8.02401 20.4655 7.82171L22.0869 7.49192L23.8458 10.5425L22.7465 11.7792C22.0781 12.5333 21.709 13.506 21.709 14.5137C21.709 15.5214 22.0781 16.4941 22.7465 17.2482ZM13.4437 9.00346C12.3566 9.00346 11.2939 9.32582 10.39 9.92979C9.4861 10.5337 8.7816 11.3922 8.36558 12.3965C7.94957 13.4009 7.84072 14.5061 8.0528 15.5723C8.26488 16.6385 8.78838 17.6179 9.55708 18.3866C10.3258 19.1553 11.3052 19.6788 12.3714 19.8908C13.4376 20.1029 14.5428 19.9941 15.5471 19.5781C16.5515 19.162 17.4099 18.4575 18.0139 17.5537C18.6178 16.6498 18.9402 15.5871 18.9402 14.5C18.9402 13.0422 18.3611 11.6441 17.3303 10.6133C16.2995 9.58255 14.9015 9.00346 13.4437 9.00346ZM13.4437 17.2482C12.9001 17.2482 12.3688 17.087 11.9168 16.785C11.4649 16.4831 11.1126 16.0538 10.9046 15.5517C10.6966 15.0495 10.6422 14.4969 10.7482 13.9638C10.8543 13.4307 11.116 12.941 11.5004 12.5567C11.8847 12.1723 12.3744 11.9106 12.9075 11.8045C13.4406 11.6985 13.9932 11.7529 14.4954 11.9609C14.9976 12.1689 15.4268 12.5212 15.7288 12.9731C16.0308 13.4251 16.1919 13.9564 16.1919 14.5C16.1919 15.2288 15.9024 15.9279 15.387 16.4433C14.8716 16.9587 14.1726 17.2482 13.4437 17.2482Z" fill="#C9C9CB"/>
</svg>
