<svg width="42" height="45" viewBox="0 0 42 45" fill="none" xmlns="http://www.w3.org/2000/svg">
<path d="M29.794 15.4069C29.5737 15.1561 29.4522 14.8337 29.4522 14.5C29.4522 14.1662 29.5737 13.8438 29.794 13.593L31.5528 11.6143C31.7467 11.3981 31.867 11.1261 31.8966 10.8372C31.9263 10.5484 31.8636 10.2576 31.7177 10.0066L28.9695 5.25209C28.8251 5.00135 28.6052 4.80259 28.3412 4.68415C28.0772 4.56571 27.7825 4.53364 27.4992 4.59251L24.9158 5.11468C24.5871 5.1826 24.2449 5.12786 23.9538 4.96078C23.6627 4.7937 23.4428 4.52585 23.3356 4.20776L22.4974 1.69311C22.4052 1.42018 22.2295 1.18312 21.9953 1.01545C21.761 0.847774 21.48 0.757961 21.1919 0.758705H15.6954C15.3958 0.743064 15.0993 0.825936 14.8511 0.994661C14.603 1.16339 14.4169 1.40869 14.3213 1.69311L13.5518 4.20776C13.4446 4.52585 13.2247 4.7937 12.9336 4.96078C12.6425 5.12786 12.3003 5.1826 11.9716 5.11468L9.3195 4.59251C9.05092 4.55456 8.77713 4.59694 8.5326 4.71432C8.28807 4.83169 8.08375 5.01881 7.94537 5.25209L5.19712 10.0066C5.04756 10.2548 4.98031 10.544 5.00499 10.8327C5.02967 11.1215 5.14502 11.395 5.33453 11.6143L7.07967 13.593C7.29997 13.8438 7.42146 14.1662 7.42146 14.5C7.42146 14.8337 7.29997 15.1561 7.07967 15.4069L5.33453 17.3856C5.14502 17.6049 5.02967 17.8784 5.00499 18.1672C4.98031 18.4559 5.04756 18.7451 5.19712 18.9934L7.94537 23.7478C8.08979 23.9986 8.30968 24.1973 8.57369 24.3158C8.83771 24.4342 9.13237 24.4663 9.41569 24.4074L11.999 23.8852C12.3278 23.8173 12.67 23.8721 12.9611 24.0391C13.2522 24.2062 13.4721 24.4741 13.5793 24.7922L14.4175 27.3068C14.5131 27.5912 14.6992 27.8365 14.9473 28.0053C15.1954 28.174 15.492 28.2569 15.7916 28.2412H21.2881C21.5762 28.242 21.8572 28.1521 22.0915 27.9845C22.3257 27.8168 22.5014 27.5797 22.5935 27.3068L23.4318 24.7922C23.5389 24.4741 23.7588 24.2062 24.05 24.0391C24.3411 23.8721 24.6833 23.8173 25.012 23.8852L27.5954 24.4074C27.8787 24.4663 28.1733 24.4342 28.4374 24.3158C28.7014 24.1973 28.9213 23.9986 29.0657 23.7478L31.8139 18.9934C31.9598 18.7423 32.0225 18.4515 31.9928 18.1627C31.9632 17.8738 31.8429 17.6018 31.649 17.3856L29.794 15.4069ZM27.7465 17.2482L28.8458 18.4849L27.0869 21.5355L25.4655 21.2057C24.4758 21.0034 23.4463 21.1715 22.5724 21.6781C21.6985 22.1847 21.041 22.9946 20.7247 23.9539L20.2026 25.493H16.6848L16.1901 23.9265C15.8739 22.9671 15.2164 22.1573 14.3425 21.6506C13.4686 21.144 12.4391 20.9759 11.4494 21.1782L9.82792 21.508L8.04156 18.4712L9.14086 17.2345C9.81687 16.4787 10.1906 15.5002 10.1906 14.4862C10.1906 13.4722 9.81687 12.4938 9.14086 11.738L8.04156 10.5013L9.80044 7.47818L11.4219 7.80797C12.4116 8.01027 13.4411 7.84216 14.315 7.33554C15.1889 6.82893 15.8464 6.01908 16.1626 5.05972L16.6848 3.50696H20.2026L20.7247 5.07346C21.041 6.03282 21.6985 6.84267 22.5724 7.34928C23.4463 7.8559 24.4758 8.02401 25.4655 7.82171L27.0869 7.49192L28.8458 10.5425L27.7465 11.7792C27.0781 12.5333 26.709 13.506 26.709 14.5137C26.709 15.5214 27.0781 16.4941 27.7465 17.2482ZM18.4437 9.00346C17.3566 9.00346 16.2939 9.32582 15.39 9.92979C14.4861 10.5337 13.7816 11.3922 13.3656 12.3965C12.9496 13.4009 12.8407 14.5061 13.0528 15.5723C13.2649 16.6385 13.7884 17.6179 14.5571 18.3866C15.3258 19.1553 16.3052 19.6788 17.3714 19.8908C18.4376 20.1029 19.5428 19.9941 20.5471 19.5781C21.5515 19.162 22.4099 18.4575 23.0139 17.5537C23.6178 16.6498 23.9402 15.5871 23.9402 14.5C23.9402 13.0422 23.3611 11.6441 22.3303 10.6133C21.2995 9.58255 19.9015 9.00346 18.4437 9.00346ZM18.4437 17.2482C17.9001 17.2482 17.3688 17.087 16.9168 16.785C16.4649 16.4831 16.1126 16.0538 15.9046 15.5517C15.6966 15.0495 15.6422 14.4969 15.7482 13.9638C15.8543 13.4307 16.116 12.941 16.5004 12.5567C16.8847 12.1723 17.3744 11.9106 17.9075 11.8045C18.4406 11.6985 18.9932 11.7529 19.4954 11.9609C19.9976 12.1689 20.4268 12.5212 20.7288 12.9731C21.0308 13.4251 21.1919 13.9564 21.1919 14.5C21.1919 15.2288 20.9024 15.9279 20.387 16.4433C19.8716 16.9587 19.1726 17.2482 18.4437 17.2482Z" fill="#C9C9CB"/>
<path d="M6.67465 42.07C6.21465 42.07 5.80132 41.99 5.43465 41.83C5.07465 41.6633 4.79132 41.4367 4.58465 41.15C4.37798 40.8567 4.27132 40.52 4.26465 40.14H5.23465C5.26798 40.4667 5.40132 40.7433 5.63465 40.97C5.87465 41.19 6.22132 41.3 6.67465 41.3C7.10798 41.3 7.44798 41.1933 7.69465 40.98C7.94798 40.76 8.07465 40.48 8.07465 40.14C8.07465 39.8733 8.00132 39.6567 7.85465 39.49C7.70798 39.3233 7.52465 39.1967 7.30465 39.11C7.08465 39.0233 6.78798 38.93 6.41465 38.83C5.95465 38.71 5.58465 38.59 5.30465 38.47C5.03132 38.35 4.79465 38.1633 4.59465 37.91C4.40132 37.65 4.30465 37.3033 4.30465 36.87C4.30465 36.49 4.40132 36.1533 4.59465 35.86C4.78798 35.5667 5.05798 35.34 5.40465 35.18C5.75798 35.02 6.16132 34.94 6.61465 34.94C7.26798 34.94 7.80132 35.1033 8.21465 35.43C8.63465 35.7567 8.87132 36.19 8.92465 36.73H7.92465C7.89132 36.4633 7.75132 36.23 7.50465 36.03C7.25798 35.8233 6.93132 35.72 6.52465 35.72C6.14465 35.72 5.83465 35.82 5.59465 36.02C5.35465 36.2133 5.23465 36.4867 5.23465 36.84C5.23465 37.0933 5.30465 37.3 5.44465 37.46C5.59132 37.62 5.76798 37.7433 5.97465 37.83C6.18798 37.91 6.48465 38.0033 6.86465 38.11C7.32465 38.2367 7.69465 38.3633 7.97465 38.49C8.25465 38.61 8.49465 38.8 8.69465 39.06C8.89465 39.3133 8.99465 39.66 8.99465 40.1C8.99465 40.44 8.90465 40.76 8.72465 41.06C8.54465 41.36 8.27798 41.6033 7.92465 41.79C7.57132 41.9767 7.15465 42.07 6.67465 42.07ZM15.2738 39.05C15.2738 39.2233 15.2638 39.4067 15.2438 39.6H10.8638C10.8971 40.14 11.0805 40.5633 11.4138 40.87C11.7538 41.17 12.1638 41.32 12.6438 41.32C13.0371 41.32 13.3638 41.23 13.6238 41.05C13.8905 40.8633 14.0771 40.6167 14.1838 40.31H15.1638C15.0171 40.8367 14.7238 41.2667 14.2838 41.6C13.8438 41.9267 13.2971 42.09 12.6438 42.09C12.1238 42.09 11.6571 41.9733 11.2438 41.74C10.8371 41.5067 10.5171 41.1767 10.2838 40.75C10.0505 40.3167 9.93379 39.8167 9.93379 39.25C9.93379 38.6833 10.0471 38.1867 10.2738 37.76C10.5005 37.3333 10.8171 37.0067 11.2238 36.78C11.6371 36.5467 12.1105 36.43 12.6438 36.43C13.1638 36.43 13.6238 36.5433 14.0238 36.77C14.4238 36.9967 14.7305 37.31 14.9438 37.71C15.1638 38.1033 15.2738 38.55 15.2738 39.05ZM14.3338 38.86C14.3338 38.5133 14.2571 38.2167 14.1038 37.97C13.9505 37.7167 13.7405 37.5267 13.4738 37.4C13.2138 37.2667 12.9238 37.2 12.6038 37.2C12.1438 37.2 11.7505 37.3467 11.4238 37.64C11.1038 37.9333 10.9205 38.34 10.8738 38.86H14.3338ZM17.525 37.27V40.5C17.525 40.7667 17.5816 40.9567 17.695 41.07C17.8083 41.1767 18.005 41.23 18.285 41.23H18.955V42H18.135C17.6283 42 17.2483 41.8833 16.995 41.65C16.7416 41.4167 16.615 41.0333 16.615 40.5V37.27H15.905V36.52H16.615V35.14H17.525V36.52H18.955V37.27H17.525ZM21.1075 37.27V40.5C21.1075 40.7667 21.1642 40.9567 21.2775 41.07C21.3909 41.1767 21.5875 41.23 21.8675 41.23H22.5375V42H21.7175C21.2109 42 20.8309 41.8833 20.5775 41.65C20.3242 41.4167 20.1975 41.0333 20.1975 40.5V37.27H19.4875V36.52H20.1975V35.14H21.1075V36.52H22.5375V37.27H21.1075ZM24.0501 35.63C23.8768 35.63 23.7301 35.57 23.6101 35.45C23.4901 35.33 23.4301 35.1833 23.4301 35.01C23.4301 34.8367 23.4901 34.69 23.6101 34.57C23.7301 34.45 23.8768 34.39 24.0501 34.39C24.2168 34.39 24.3568 34.45 24.4701 34.57C24.5901 34.69 24.6501 34.8367 24.6501 35.01C24.6501 35.1833 24.5901 35.33 24.4701 35.45C24.3568 35.57 24.2168 35.63 24.0501 35.63ZM24.4901 36.52V42H23.5801V36.52H24.4901ZM28.6511 36.42C29.3177 36.42 29.8577 36.6233 30.2711 37.03C30.6844 37.43 30.8911 38.01 30.8911 38.77V42H29.9911V38.9C29.9911 38.3533 29.8544 37.9367 29.5811 37.65C29.3077 37.3567 28.9344 37.21 28.4611 37.21C27.9811 37.21 27.5977 37.36 27.3111 37.66C27.0311 37.96 26.8911 38.3967 26.8911 38.97V42H25.9811V36.52H26.8911V37.3C27.0711 37.02 27.3144 36.8033 27.6211 36.65C27.9344 36.4967 28.2777 36.42 28.6511 36.42ZM34.5775 36.43C35.0509 36.43 35.4642 36.5333 35.8175 36.74C36.1775 36.9467 36.4442 37.2067 36.6175 37.52V36.52H37.5375V42.12C37.5375 42.62 37.4309 43.0633 37.2175 43.45C37.0042 43.8433 36.6975 44.15 36.2975 44.37C35.9042 44.59 35.4442 44.7 34.9175 44.7C34.1975 44.7 33.5975 44.53 33.1175 44.19C32.6375 43.85 32.3542 43.3867 32.2675 42.8H33.1675C33.2675 43.1333 33.4742 43.4 33.7875 43.6C34.1009 43.8067 34.4775 43.91 34.9175 43.91C35.4175 43.91 35.8242 43.7533 36.1375 43.44C36.4575 43.1267 36.6175 42.6867 36.6175 42.12V40.97C36.4375 41.29 36.1709 41.5567 35.8175 41.77C35.4642 41.9833 35.0509 42.09 34.5775 42.09C34.0909 42.09 33.6475 41.97 33.2475 41.73C32.8542 41.49 32.5442 41.1533 32.3175 40.72C32.0909 40.2867 31.9775 39.7933 31.9775 39.24C31.9775 38.68 32.0909 38.19 32.3175 37.77C32.5442 37.3433 32.8542 37.0133 33.2475 36.78C33.6475 36.5467 34.0909 36.43 34.5775 36.43ZM36.6175 39.25C36.6175 38.8367 36.5342 38.4767 36.3675 38.17C36.2009 37.8633 35.9742 37.63 35.6875 37.47C35.4075 37.3033 35.0975 37.22 34.7575 37.22C34.4175 37.22 34.1075 37.3 33.8275 37.46C33.5475 37.62 33.3242 37.8533 33.1575 38.16C32.9909 38.4667 32.9075 38.8267 32.9075 39.24C32.9075 39.66 32.9909 40.0267 33.1575 40.34C33.3242 40.6467 33.5475 40.8833 33.8275 41.05C34.1075 41.21 34.4175 41.29 34.7575 41.29C35.0975 41.29 35.4075 41.21 35.6875 41.05C35.9742 40.8833 36.2009 40.6467 36.3675 40.34C36.5342 40.0267 36.6175 39.6633 36.6175 39.25Z" fill="#C9C9CB"/>
</svg>
