<svg width="22" height="24" viewBox="0 0 22 24" fill="none" xmlns="http://www.w3.org/2000/svg">
<path d="M11 0C8.6131 0 6.32391 0.948211 4.63609 2.63604C2.94826 4.32387 2.00005 6.61305 2.00005 9V14.379L0.939547 15.4395C0.729832 15.6493 0.587023 15.9165 0.529171 16.2075C0.47132 16.4984 0.501025 16.7999 0.61453 17.074C0.728035 17.348 0.920244 17.5823 1.16686 17.7471C1.41347 17.9119 1.70342 17.9999 2.00005 18H20C20.2967 17.9999 20.5866 17.9119 20.8332 17.7471C21.0798 17.5823 21.2721 17.348 21.3856 17.074C21.4991 16.7999 21.5288 16.4984 21.4709 16.2075C21.4131 15.9165 21.2703 15.6493 21.0605 15.4395L20 14.379V9C20 6.61305 19.0518 4.32387 17.364 2.63604C15.6762 0.948211 13.387 0 11 0ZM11 24C9.80657 24 8.66198 23.5259 7.81807 22.682C6.97415 21.8381 6.50005 20.6935 6.50005 19.5H15.5C15.5 20.6935 15.0259 21.8381 14.182 22.682C13.3381 23.5259 12.1935 24 11 24Z" fill="#5B6871"/>
</svg>
