<svg width="114" height="76" viewBox="0 0 114 76" fill="none" xmlns="http://www.w3.org/2000/svg">
<path d="M16.32 45.64C15.2933 45.64 14.3733 45.4733 13.56 45.14C12.7467 44.8067 12.0933 44.3133 11.6 43.66C11.12 43.0067 10.8667 42.22 10.84 41.3H14.48C14.5333 41.82 14.7133 42.22 15.02 42.5C15.3267 42.7667 15.7267 42.9 16.22 42.9C16.7267 42.9 17.1267 42.7867 17.42 42.56C17.7133 42.32 17.86 41.9933 17.86 41.58C17.86 41.2333 17.74 40.9467 17.5 40.72C17.2733 40.4933 16.9867 40.3067 16.64 40.16C16.3067 40.0133 15.8267 39.8467 15.2 39.66C14.2933 39.38 13.5533 39.1 12.98 38.82C12.4067 38.54 11.9133 38.1267 11.5 37.58C11.0867 37.0333 10.88 36.32 10.88 35.44C10.88 34.1333 11.3533 33.1133 12.3 32.38C13.2467 31.6333 14.48 31.26 16 31.26C17.5467 31.26 18.7933 31.6333 19.74 32.38C20.6867 33.1133 21.1933 34.14 21.26 35.46H17.56C17.5333 35.0067 17.3667 34.6533 17.06 34.4C16.7533 34.1333 16.36 34 15.88 34C15.4667 34 15.1333 34.1133 14.88 34.34C14.6267 34.5533 14.5 34.8667 14.5 35.28C14.5 35.7333 14.7133 36.0867 15.14 36.34C15.5667 36.5933 16.2333 36.8667 17.14 37.16C18.0467 37.4667 18.78 37.76 19.34 38.04C19.9133 38.32 20.4067 38.7267 20.82 39.26C21.2333 39.7933 21.44 40.48 21.44 41.32C21.44 42.12 21.2333 42.8467 20.82 43.5C20.42 44.1533 19.8333 44.6733 19.06 45.06C18.2867 45.4467 17.3733 45.64 16.32 45.64ZM56.1344 45.5L53.2144 40.2H52.3944V45.5H48.9744V31.46H54.7144C55.821 31.46 56.761 31.6533 57.5344 32.04C58.321 32.4267 58.9077 32.96 59.2944 33.64C59.681 34.3067 59.8744 35.0533 59.8744 35.88C59.8744 36.8133 59.6077 37.6467 59.0744 38.38C58.5544 39.1133 57.781 39.6333 56.7544 39.94L59.9944 45.5H56.1344ZM52.3944 37.78H54.5144C55.141 37.78 55.6077 37.6267 55.9144 37.32C56.2344 37.0133 56.3944 36.58 56.3944 36.02C56.3944 35.4867 56.2344 35.0667 55.9144 34.76C55.6077 34.4533 55.141 34.3 54.5144 34.3H52.3944V37.78ZM72.1213 31.46V34.2H68.4013V45.5H64.9813V34.2H61.2613V31.46H72.1213ZM77.2577 31.46V45.5H73.8377V31.46H77.2577ZM88.8761 31.46V34.2H83.1561V37.16H87.4361V39.82H83.1561V45.5H79.7361V31.46H88.8761ZM102.714 31.46L97.8536 40.86V45.5H94.4336V40.86L89.5736 31.46H93.4536L96.1736 37.34L98.8736 31.46H102.714Z" fill="black"/>
<path d="M32.875 23.5047C32.651 23.5288 32.4417 23.6278 32.281 23.7857L27.562 28.5047H25C24.449 28.5047 24 28.9537 24 29.5047V31.5047C24 32.0557 24.449 32.5047 25 32.5047H25.25L27.531 46.2237V46.2857C27.694 47.0737 28 47.8267 28.563 48.4427C28.8648 48.7733 29.2314 49.0382 29.64 49.2209C30.0486 49.4036 30.4904 49.5002 30.938 49.5047H39.062C39.5073 49.5042 39.9478 49.4124 40.3562 49.2351C40.7647 49.0578 41.1325 48.7987 41.437 48.4737C42.008 47.8587 42.32 47.0687 42.469 46.2547V46.2237L44.78 32.5047H45C45.551 32.5047 46 32.0557 46 31.5047V29.5047C46 28.9537 45.551 28.5047 45 28.5047H43.437L40.625 25.0047C40.5415 24.8959 40.4317 24.8102 40.3059 24.7554C40.1801 24.7007 40.0425 24.6787 39.906 24.6917C39.7836 24.7064 39.6662 24.7492 39.563 24.8167L36.688 26.7547L33.717 23.7857C33.6079 23.6774 33.4752 23.5956 33.3293 23.5469C33.1835 23.4982 33.0283 23.4837 32.876 23.5047H32.875ZM33 25.9427L35.563 28.5047H30.436L33 25.9427ZM39.844 26.5987L41.375 28.5047H38.437L37.844 27.9107L39.844 26.5987ZM27.25 32.5047H27.938L29.125 33.6927L27.687 35.0987L27.25 32.5047ZM29.344 32.5047H30.281L29.812 32.9737L29.344 32.5047ZM31.656 32.5047H33.344L34.25 33.4107L32.25 35.4107L30.5 33.6607L31.656 32.5047ZM34.781 32.5047H35.125L34.969 32.6927L34.78 32.5047H34.781ZM36.562 32.5047H38.25L39.406 33.6607L37.656 35.4107L35.656 33.3797L36.562 32.5047ZM39.625 32.5047H40.563L40.093 32.9737L39.625 32.5047ZM41.969 32.5047H42.781L42.344 35.1927L40.812 33.6607L41.969 32.5047ZM34.937 34.0987L36.969 36.0987L34.938 38.0987L32.938 36.0987L34.937 34.0987ZM29.813 34.3797L31.531 36.0987L29.531 38.0987L27.906 36.4737L27.875 36.3177L29.813 34.3797ZM40.093 34.3797L42.093 36.3797L40.375 38.1297L38.375 36.0987L40.093 34.3797ZM32.25 36.8177L34.25 38.8177L32.25 40.8177L30.25 38.8177L32.25 36.8177ZM37.656 36.8177L39.687 38.8177L37.687 40.8177L35.657 38.8177L37.656 36.8177ZM41.844 38.0677L41.625 39.3797L41.062 38.8167L41.844 38.0677ZM28.187 38.1607L28.844 38.8167L28.375 39.2867L28.187 38.1607ZM29.532 39.5047L31.532 41.5047L29.532 43.5357L28.97 42.9737L28.563 40.4737L29.532 39.5047ZM34.939 39.5047L36.969 41.5357L34.969 43.5357L32.939 41.5047L34.939 39.5047ZM40.376 39.5047L41.439 40.5677L41.032 42.8477L40.376 43.5047L38.376 41.5047L40.376 39.5047ZM32.251 42.2237L34.251 44.2237L32.251 46.2547L30.251 44.2547L32.251 42.2237ZM37.657 42.2237L39.657 44.2237L37.657 46.2237L35.657 44.2237L37.657 42.2237ZM29.563 44.9417L31.563 46.9417L31 47.5047H30.937C30.546 47.5047 30.316 47.3747 30.063 47.0987C29.7674 46.7596 29.5629 46.3507 29.469 45.9107V45.8797L29.344 45.1297L29.562 44.9417H29.563ZM34.97 44.9417L36.97 46.9417L36.407 47.5047H33.5L32.937 46.9417L34.969 44.9417H34.97ZM40.376 44.9417L40.657 45.2237L40.532 45.8797C40.53 45.8897 40.534 45.8997 40.532 45.9107C40.437 46.4007 40.216 46.8327 39.97 47.0987C39.718 47.3687 39.461 47.5047 39.063 47.5047H38.938L38.376 46.9417L40.376 44.9417Z" fill="black"/>
</svg>
