<svg width="185" height="38" viewBox="0 0 185 38" fill="none" xmlns="http://www.w3.org/2000/svg">
<path d="M80.875 6.00447C80.651 6.02855 80.4417 6.12757 80.281 6.28547L75.562 11.0045H73C72.449 11.0045 72 11.4535 72 12.0045V14.0045C72 14.5555 72.449 15.0045 73 15.0045H73.25L75.531 28.7235V28.7855C75.694 29.5735 76 30.3265 76.563 30.9425C76.8648 31.273 77.2314 31.5379 77.64 31.7207C78.0486 31.9034 78.4904 32 78.938 32.0045H87.062C87.5073 32.0039 87.9478 31.9122 88.3562 31.7349C88.7647 31.5575 89.1325 31.2984 89.437 30.9735C90.008 30.3585 90.32 29.5685 90.469 28.7545V28.7235L92.78 15.0045H93C93.551 15.0045 94 14.5555 94 14.0045V12.0045C94 11.4535 93.551 11.0045 93 11.0045H91.437L88.625 7.50447C88.5415 7.39569 88.4317 7.30991 88.3059 7.25516C88.1801 7.20042 88.0425 7.1785 87.906 7.19147C87.7836 7.20614 87.6662 7.24892 87.563 7.31647L84.688 9.25447L81.717 6.28547C81.6079 6.17712 81.4752 6.0954 81.3293 6.04666C81.1835 5.99792 81.0283 5.98349 80.876 6.00447H80.875ZM81 8.44247L83.563 11.0045H78.436L81 8.44247ZM87.844 9.09847L89.375 11.0045H86.437L85.844 10.4105L87.844 9.09847ZM75.25 15.0045H75.938L77.125 16.1925L75.687 17.5985L75.25 15.0045ZM77.344 15.0045H78.281L77.812 15.4735L77.344 15.0045ZM79.656 15.0045H81.344L82.25 15.9105L80.25 17.9105L78.5 16.1605L79.656 15.0045ZM82.781 15.0045H83.125L82.969 15.1925L82.78 15.0045H82.781ZM84.562 15.0045H86.25L87.406 16.1605L85.656 17.9105L83.656 15.8795L84.562 15.0045ZM87.625 15.0045H88.563L88.093 15.4735L87.625 15.0045ZM89.969 15.0045H90.781L90.344 17.6925L88.812 16.1605L89.969 15.0045ZM82.937 16.5985L84.969 18.5985L82.938 20.5985L80.938 18.5985L82.937 16.5985ZM77.813 16.8795L79.531 18.5985L77.531 20.5985L75.906 18.9735L75.875 18.8175L77.813 16.8795ZM88.093 16.8795L90.093 18.8795L88.375 20.6295L86.375 18.5985L88.093 16.8795ZM80.25 19.3175L82.25 21.3175L80.25 23.3175L78.25 21.3175L80.25 19.3175ZM85.656 19.3175L87.687 21.3175L85.687 23.3175L83.657 21.3175L85.656 19.3175ZM89.844 20.5675L89.625 21.8795L89.062 21.3165L89.844 20.5675ZM76.187 20.6605L76.844 21.3165L76.375 21.7865L76.187 20.6605ZM77.532 22.0045L79.532 24.0045L77.532 26.0355L76.97 25.4735L76.563 22.9735L77.532 22.0045ZM82.939 22.0045L84.969 24.0355L82.969 26.0355L80.939 24.0045L82.939 22.0045ZM88.376 22.0045L89.439 23.0675L89.032 25.3475L88.376 26.0045L86.376 24.0045L88.376 22.0045ZM80.251 24.7235L82.251 26.7235L80.251 28.7545L78.251 26.7545L80.251 24.7235ZM85.657 24.7235L87.657 26.7235L85.657 28.7235L83.657 26.7235L85.657 24.7235ZM77.563 27.4415L79.563 29.4415L79 30.0045H78.937C78.546 30.0045 78.316 29.8745 78.063 29.5985C77.7674 29.2593 77.5629 28.8505 77.469 28.4105V28.3795L77.344 27.6295L77.562 27.4415H77.563ZM82.97 27.4415L84.97 29.4415L84.407 30.0045H81.5L80.937 29.4415L82.969 27.4415H82.97ZM88.376 27.4415L88.657 27.7235L88.532 28.3795C88.53 28.3895 88.534 28.3995 88.532 28.4105C88.437 28.9005 88.216 29.3325 87.97 29.5985C87.718 29.8685 87.461 30.0045 87.063 30.0045H86.938L86.376 29.4415L88.376 27.4415Z" fill="white"/>
<path d="M60.112 32.224C58.4693 32.224 56.9973 31.9573 55.696 31.424C54.3947 30.8907 53.3493 30.1013 52.56 29.056C51.792 28.0107 51.3867 26.752 51.344 25.28H57.168C57.2533 26.112 57.5413 26.752 58.032 27.2C58.5227 27.6267 59.1627 27.84 59.952 27.84C60.7627 27.84 61.4027 27.6587 61.872 27.296C62.3413 26.912 62.576 26.3893 62.576 25.728C62.576 25.1733 62.384 24.7147 62 24.352C61.6373 23.9893 61.1787 23.6907 60.624 23.456C60.0907 23.2213 59.3227 22.9547 58.32 22.656C56.8693 22.208 55.6853 21.76 54.768 21.312C53.8507 20.864 53.0613 20.2027 52.4 19.328C51.7387 18.4533 51.408 17.312 51.408 15.904C51.408 13.8133 52.1653 12.1813 53.68 11.008C55.1947 9.81333 57.168 9.216 59.6 9.216C62.0747 9.216 64.0693 9.81333 65.584 11.008C67.0987 12.1813 67.9093 13.824 68.016 15.936H62.096C62.0533 15.2107 61.7867 14.6453 61.296 14.24C60.8053 13.8133 60.176 13.6 59.408 13.6C58.7467 13.6 58.2133 13.7813 57.808 14.144C57.4027 14.4853 57.2 14.9867 57.2 15.648C57.2 16.3733 57.5413 16.9387 58.224 17.344C58.9067 17.7493 59.9733 18.1867 61.424 18.656C62.8747 19.1467 64.048 19.616 64.944 20.064C65.8613 20.512 66.6507 21.1627 67.312 22.016C67.9733 22.8693 68.304 23.968 68.304 25.312C68.304 26.592 67.9733 27.7547 67.312 28.8C66.672 29.8453 65.7333 30.6773 64.496 31.296C63.2587 31.9147 61.7973 32.224 60.112 32.224ZM110.253 32L105.581 23.52H104.269V32H98.7965V9.536H107.981C109.751 9.536 111.255 9.84533 112.493 10.464C113.751 11.0827 114.69 11.936 115.309 13.024C115.927 14.0907 116.237 15.2853 116.237 16.608C116.237 18.1013 115.81 19.4347 114.957 20.608C114.125 21.7813 112.887 22.6133 111.245 23.104L116.429 32H110.253ZM104.269 19.648H107.661C108.663 19.648 109.41 19.4027 109.901 18.912C110.413 18.4213 110.669 17.728 110.669 16.832C110.669 15.9787 110.413 15.3067 109.901 14.816C109.41 14.3253 108.663 14.08 107.661 14.08H104.269V19.648ZM135.832 9.536V13.92H129.88V32H124.408V13.92H118.456V9.536H135.832ZM144.05 9.536V32H138.578V9.536H144.05ZM162.639 9.536V13.92H153.487V18.656H160.335V22.912H153.487V32H148.015V9.536H162.639ZM184.779 9.536L177.003 24.576V32H171.531V24.576L163.755 9.536H169.963L174.315 18.944L178.635 9.536H184.779Z" fill="white"/>
</svg>
