<svg width="321" height="229" viewBox="0 0 321 229" fill="none" xmlns="http://www.w3.org/2000/svg">
<g clip-path="url(#clip0_209_262)">
<path d="M93.4165 44.9803L147.649 44.9097L201.881 44.8394C201.947 94.8623 202.012 144.885 202.078 194.909C165.923 194.956 129.767 195.003 93.6124 195.05C93.5471 145.027 93.4819 95.0035 93.4165 44.9803Z" fill="#004B70"/>
<path d="M105.473 181.21C101.409 181.215 98.1074 177.922 98.1021 173.856L97.9482 56.0508C97.943 51.9853 101.236 48.6853 105.3 48.6801L189.975 48.5691C194.041 48.5644 197.34 51.8552 197.346 55.9211L197.465 146.993L162.02 181.136L105.473 181.21Z" fill="#F5F5F5"/>
<path d="M115.608 37.4366L147.639 37.3951L179.671 37.3533C179.677 41.9208 179.683 46.4884 179.689 51.056C158.334 51.0841 136.98 51.1119 115.626 51.1396C115.62 46.572 115.614 42.0043 115.608 37.4366Z" fill="#00141E"/>
<path d="M108.241 61.8888L121.555 61.7664C121.913 61.763 122.205 62.0502 122.209 62.4075L122.321 74.5529C122.324 74.9102 122.037 75.2027 121.68 75.2061L108.365 75.3294C108.193 75.331 108.028 75.2643 107.906 75.144C107.783 75.0236 107.713 74.8597 107.712 74.6881L107.6 62.5419C107.598 62.3704 107.665 62.2051 107.785 62.0825C107.905 61.9601 108.069 61.8904 108.241 61.8888ZM108.253 63.1833L108.894 62.5301L109.006 74.6762L108.353 74.0349L121.668 73.9116L121.026 74.5649L120.914 62.4196L121.567 63.0609L108.253 63.1833Z" fill="#69D2F4"/>
<path d="M108.433 82.6245L121.747 82.502C122.105 82.4987 122.397 82.7858 122.4 83.1432L122.513 95.2884C122.516 95.6457 122.229 95.9384 121.871 95.9417L108.557 96.0649C108.385 96.0666 108.22 95.9997 108.098 95.8796C107.975 95.7593 107.905 95.5953 107.904 95.4237L107.792 83.2777C107.79 83.1061 107.857 82.9409 107.977 82.8183C108.097 82.6958 108.261 82.626 108.433 82.6245ZM108.445 83.919L109.086 83.2658L109.198 95.4117L108.545 94.7706L121.859 94.6472L121.218 95.3005L121.106 83.1553L121.759 83.7965L108.445 83.919Z" fill="#69D2F4"/>
<path d="M108.624 103.36L121.939 103.238C122.296 103.234 122.588 103.521 122.592 103.879L122.704 116.024C122.707 116.381 122.42 116.674 122.063 116.677L108.748 116.801C108.577 116.802 108.411 116.735 108.289 116.615C108.166 116.495 108.097 116.331 108.095 116.159L107.983 104.013C107.981 103.842 108.048 103.676 108.168 103.554C108.289 103.431 108.452 103.362 108.624 103.36ZM108.636 104.654L109.277 104.001L109.389 116.147L108.736 115.506L122.051 115.383L121.41 116.036L121.297 103.891L121.951 104.532L108.636 104.654Z" fill="#69D2F4"/>
<path d="M108.816 124.096L122.13 123.973C122.488 123.97 122.78 124.257 122.784 124.614L122.896 136.759C122.899 137.117 122.612 137.409 122.255 137.413L108.94 137.536C108.769 137.538 108.603 137.471 108.481 137.351C108.358 137.23 108.289 137.067 108.287 136.895L108.175 124.749C108.173 124.577 108.24 124.412 108.36 124.289C108.48 124.167 108.644 124.097 108.816 124.096ZM108.828 125.39L109.469 124.737L109.581 136.883L108.928 136.242L122.243 136.118L121.601 136.772L121.489 124.626L122.142 125.267L108.828 125.39Z" fill="#69D2F4"/>
<path d="M109.008 144.831L122.322 144.709C122.679 144.705 122.972 144.992 122.975 145.35L123.087 157.495C123.091 157.852 122.803 158.145 122.446 158.148L109.132 158.272C108.96 158.273 108.795 158.206 108.672 158.086C108.55 157.966 108.48 157.802 108.478 157.63L108.366 145.484C108.365 145.313 108.431 145.148 108.552 145.025C108.672 144.903 108.836 144.833 109.008 144.831ZM109.019 146.126L109.661 145.473L109.773 157.619L109.12 156.977L122.434 156.854L121.793 157.507L121.681 145.362L122.334 146.003L109.019 146.126Z" fill="#69D2F4"/>
<path d="M126.173 65.7849L155.394 65.5139L184.616 65.2427C184.642 68.0422 184.668 70.8416 184.694 73.6411C165.213 73.8219 145.732 74.0027 126.251 74.1837C126.225 71.384 126.199 68.5844 126.173 65.7849Z" fill="#9FC6D9"/>
<path d="M126.36 86.0467L184.803 85.5044L184.881 93.9028L126.438 94.4453L126.36 86.0467Z" fill="#9FC6D9"/>
<path d="M126.547 106.308L155.768 106.037L184.99 105.766C185.016 108.565 185.042 111.365 185.068 114.164C165.587 114.345 146.106 114.526 126.625 114.707C126.599 111.907 126.573 109.108 126.547 106.308Z" fill="#9FC6D9"/>
<path d="M126.734 126.57L185.177 126.027L185.255 134.426L126.812 134.968L126.734 126.57Z" fill="#9FC6D9"/>
<path d="M126.921 146.831L156.143 146.56L185.365 146.289C185.39 149.088 185.416 151.888 185.442 154.687C165.961 154.868 146.48 155.049 126.999 155.23C126.973 152.43 126.947 149.631 126.921 146.831Z" fill="#9FC6D9"/>
<path d="M197.466 146.993L169.338 147.029C165.272 147.035 161.981 150.335 161.986 154.401L162.021 181.136L197.466 146.993Z" fill="#E1E1E1"/>
<path d="M114.13 60.5721L111.716 73.8169C121.343 68.252 130.97 62.6873 140.597 57.1226C132.327 60.8457 124.057 64.5689 115.787 68.2921L114.13 60.5721Z" fill="#65A138"/>
<path d="M114.32 81.1204L111.906 94.365L140.786 77.6704L115.977 88.8401L114.32 81.1204Z" fill="#65A138"/>
<path d="M114.51 101.669L113.303 108.291L112.096 114.913C121.722 109.348 131.349 103.784 140.976 98.2188C132.706 101.942 124.436 105.665 116.166 109.389L114.51 101.669Z" fill="#65A138"/>
<path d="M114.7 122.216L112.286 135.461L141.166 118.767L116.356 129.936L114.7 122.216Z" fill="#65A138"/>
<path d="M114.89 142.765L113.683 149.387L112.476 156.01C122.102 150.445 131.729 144.88 141.356 139.315C133.086 143.038 124.816 146.761 116.546 150.485C115.994 147.911 115.442 145.338 114.89 142.765Z" fill="#65A138"/>
<path d="M195.466 103.153C196.526 103.646 197.14 104.643 197.357 106.268C197.411 106.681 197.484 107.112 197.527 107.233C197.569 107.353 197.601 107.577 197.605 107.73C197.609 107.884 197.684 108.26 197.773 108.566C198.125 109.765 198.23 110.243 198.252 110.787C198.266 111.103 198.308 111.578 198.346 111.85C198.377 112.122 198.399 112.399 198.387 112.461C198.374 112.531 198.41 112.731 198.464 112.918C198.519 113.105 198.557 113.289 198.549 113.336C198.54 113.382 198.574 113.55 198.633 113.714C198.683 113.875 198.725 114.173 198.713 114.372C198.702 114.917 198.792 115.915 198.891 116.296C198.974 116.633 199.274 117.766 199.496 118.62C199.562 118.873 199.649 119.147 199.691 119.219C199.925 119.656 200.106 121.259 200.036 122.3C200.012 122.65 200.012 123.044 200.038 123.17C200.062 123.303 200.055 123.559 200.021 123.746C199.932 124.229 199.903 126.493 199.985 126.838C200.02 126.998 200.063 127.335 200.082 127.58C200.102 127.826 200.134 128.306 200.152 128.647C200.178 128.99 200.218 129.344 200.25 129.43C200.316 129.643 200.268 131.091 200.161 131.981C200.061 132.832 200.053 133.49 200.121 133.954C200.151 134.144 200.155 134.426 200.127 134.582C200.098 134.738 200.094 135.067 200.113 135.312C200.133 135.557 200.121 136.15 200.074 136.625C200.035 137.101 200.014 137.523 200.037 137.576C200.063 137.653 200.053 137.925 199.912 139.661C199.817 140.972 199.964 141.482 200.444 141.457C200.639 141.445 201.278 141.031 201.301 140.906C201.308 140.867 201.44 140.722 201.593 140.589C201.746 140.456 201.975 140.216 202.108 140.064C202.511 139.575 203.106 138.79 203.189 138.644C203.234 138.572 203.311 138.458 203.362 138.403C203.682 138.059 204.304 137.038 204.466 136.593C204.533 136.404 204.66 136.105 204.758 135.922C205.021 135.407 205.706 133.561 205.789 133.109C205.838 132.885 205.951 132.576 206.045 132.416C206.585 131.533 206.753 131.057 206.898 129.956C207.249 127.429 207.335 126.431 207.256 126.071C207.213 125.869 207.188 125.39 207.194 125.005C207.21 124.436 207.249 124.226 207.408 123.837C207.65 123.221 208.456 122.114 209.001 121.642C209.709 121.031 210.627 120.854 211.339 121.185C211.686 121.354 212.242 122.051 212.202 122.269C212.19 122.339 212.226 122.579 212.275 122.797C212.359 123.127 212.345 123.422 212.206 124.491C212.107 125.205 212.041 126.006 212.064 126.276C212.079 126.544 212.061 126.991 212.01 127.272C211.958 127.552 211.94 128.048 211.967 128.383C211.994 128.718 211.99 129.135 211.959 129.307C211.933 129.487 211.91 129.789 211.914 129.99C211.921 130.217 211.826 130.691 211.665 131.257C211.453 132.023 211.412 132.289 211.395 132.994C211.387 133.701 211.264 134.459 210.63 137.956C209.748 142.816 209.957 142.243 208.599 143.636C207.636 144.634 207.553 144.732 207.146 145.245C206.957 145.484 206.61 145.927 206.36 146.236C206.119 146.545 205.862 146.845 205.787 146.903C205.714 146.954 205.65 147.039 205.643 147.078C205.634 147.125 205.512 147.263 205.376 147.391C205.163 147.586 204.414 148.422 203.799 149.146C203.604 149.376 202.664 150.636 202.271 151.2C201.943 151.671 201.642 152.219 201.606 152.414C201.59 152.5 201.502 152.677 201.411 152.821C201.321 152.958 201.1 153.464 200.923 153.947C200.631 154.706 200.589 154.891 200.592 155.311C200.598 155.586 200.598 155.98 200.597 156.205C200.598 156.423 200.624 156.717 200.662 156.861C200.694 156.995 200.734 157.26 200.749 157.44C200.764 157.62 200.819 158.025 200.88 158.35C200.943 158.667 200.992 159.102 200.992 159.319C201.005 159.732 201.171 160.761 201.255 160.913C201.286 160.967 201.367 161.4 201.434 161.871C201.608 163.119 201.671 163.428 201.753 163.644C201.798 163.749 201.831 163.964 201.835 164.118C201.839 164.272 201.928 164.706 202.027 165.087C202.133 165.476 202.204 165.835 202.194 165.89C202.184 165.944 202.224 166.121 202.284 166.277C202.344 166.432 202.387 166.593 202.38 166.632C202.353 166.78 203.016 169.219 203.106 169.3C203.133 169.329 203.163 169.472 203.161 169.616C203.177 169.925 203.371 170.749 203.482 170.939C203.525 171.011 203.569 171.164 203.58 171.279C203.592 171.393 203.658 171.599 203.715 171.73C203.779 171.862 204.007 172.596 204.222 173.352C204.805 175.398 204.998 175.836 206.232 177.889C207.773 180.457 208.344 181.117 209.508 181.749C209.852 181.933 210.291 182.174 210.495 182.292C210.692 182.401 211.138 182.644 211.483 182.827C211.826 183.019 212.151 183.223 212.211 183.291C212.262 183.365 212.347 183.428 212.385 183.435C212.424 183.442 212.732 183.829 213.067 184.285C213.4 184.749 213.694 185.124 213.725 185.13C213.748 185.134 213.938 185.459 214.148 185.851C214.351 186.234 214.548 186.568 214.576 186.589C214.604 186.611 214.81 186.978 215.027 187.421C215.245 187.855 215.569 188.461 215.747 188.76C215.926 189.058 216.096 189.403 216.138 189.524C216.274 189.926 217.263 191.823 217.63 192.365C217.781 192.594 218.004 192.957 218.124 193.18C218.491 193.858 219.302 199.612 218.436 199.534C217.563 199.463 217.068 199.051 217.029 199.06C213.815 199.787 213.8 196.572 203.865 194.75C194.21 192.98 186.312 191.5 186.318 191.469C186.325 191.43 186.26 191.346 186.167 191.281C186.084 191.209 185.725 190.926 185.383 190.646C185.032 190.364 184.521 189.948 184.237 189.736C183.956 189.515 183.693 189.282 183.656 189.219C183.62 189.156 183.566 189.098 183.527 189.091C183.472 189.08 183.118 188.774 182.7 188.375C181.987 187.697 181.618 187.34 181.534 187.228C181.384 187.04 180.298 186.205 179.969 186.024C179.807 185.938 179.597 185.811 179.499 185.728C179.394 185.645 179.27 185.573 179.231 185.567C179.146 185.551 177.963 184.714 177.628 184.435C177.53 184.353 177.249 184.133 176.994 183.941C176.739 183.75 176.406 183.463 176.248 183.313C176.092 183.156 175.862 182.961 175.727 182.864C175.598 182.776 175.354 182.57 175.182 182.41C175.01 182.249 174.699 181.975 174.48 181.806C174.263 181.63 173.95 181.363 173.786 181.204C173.541 180.958 173.066 180.565 172.398 180.04C172.003 179.734 170.181 178.435 170.126 178.425C170.087 178.418 170.026 178.358 169.991 178.287C169.948 178.215 169.828 178.12 169.725 178.069C169.62 178.026 169.147 177.706 168.672 177.361C168.197 177.009 167.732 176.69 167.644 176.642C167.549 176.592 167.332 176.416 167.161 176.248C166.992 176.072 166.789 175.866 166.707 175.786C166.42 175.508 166.019 175.105 165.681 174.753C165.49 174.565 165.171 174.241 164.966 174.042C164.76 173.852 164.466 173.565 164.317 173.416C164.167 173.268 163.933 173.048 163.801 172.936C163.215 172.442 162.071 171.443 161.788 171.182C161.617 171.022 161.369 170.791 161.237 170.679C161 170.474 160.421 169.901 160.216 169.662C160.163 169.596 159.89 169.289 159.619 168.965C159.347 168.65 159.032 168.303 158.923 168.194C158.465 167.756 158.362 167.657 158.181 167.503C158.076 167.419 157.89 167.248 157.76 167.12C157.638 167.001 157.288 166.711 156.985 166.479C156.619 166.194 156.295 165.853 156.007 165.447C155.467 164.663 155.379 164.132 155.547 162.642C155.617 162.083 155.642 161.556 155.618 161.464C155.586 161.377 155.586 161.071 155.604 160.793C155.654 160.174 155.568 159.104 155.452 158.906C155.41 158.826 155.358 158.583 155.334 158.361C155.186 156.709 155.099 156.218 154.876 155.589C154.598 154.782 154.086 152.966 153.978 152.367C153.655 150.617 153.699 150.07 154.173 149.634C154.472 149.367 155.06 149.185 155.419 149.25C155.691 149.3 156.303 149.123 156.415 148.95C156.458 148.894 156.633 148.201 156.81 147.413C157.155 145.883 157.657 144.196 157.975 143.514C158.082 143.284 158.187 142.974 158.213 142.833C158.304 142.335 158.866 141.682 159.662 141.159C160.066 140.888 160.436 140.673 160.474 140.681C160.521 140.689 160.714 140.604 160.919 140.497C161.114 140.396 161.372 140.266 161.476 140.221C161.581 140.176 162.001 139.995 162.403 139.819C163.644 139.282 163.904 139.185 164.293 139.079C164.453 139.044 164.901 138.925 165.275 138.817C165.655 138.717 166 138.636 166.047 138.644C166.133 138.66 167.241 138.364 168.012 138.111C168.268 138.029 168.922 137.843 169.455 137.699C169.99 137.548 170.576 137.382 170.746 137.332C171.157 137.199 171.725 137.303 172.302 137.626C172.814 137.905 173.492 138.375 173.644 138.556C173.757 138.689 175.036 139.656 175.87 140.244C176.184 140.462 176.49 140.679 176.545 140.73C176.601 140.78 176.855 140.972 177.111 141.155C177.367 141.339 177.65 141.552 177.749 141.626C177.847 141.708 178.141 141.948 178.415 142.167C178.682 142.377 179.03 142.674 179.18 142.822C179.724 143.365 180.184 143.666 180.572 143.746C181.044 143.848 181.237 143.763 182.032 143.112C182.573 142.664 182.785 142.389 183.158 141.58C183.356 141.157 183.585 139.469 183.492 139.146C183.446 139.001 183.318 138.382 183.205 137.766C183.085 137.148 182.922 136.37 182.836 136.048C182.752 135.719 182.672 135.366 182.659 135.259C182.646 135.152 182.542 134.843 182.43 134.574C182.145 133.893 182.135 133.859 181.829 132.765C181.461 131.475 181.386 131.227 181.264 130.971C181.195 130.822 181.102 130.274 181.015 129.517C180.985 129.246 180.953 128.935 180.934 128.818C180.893 128.473 180.453 127.056 180.301 126.787C180.222 126.644 180.078 126.335 179.99 126.11C179.896 125.876 179.764 125.545 179.685 125.362C179.341 124.559 179.177 124.182 179.129 124.093C179.097 124.047 179.042 123.908 179.007 123.789C178.971 123.678 178.843 123.413 178.718 123.213C178.498 122.835 178.246 122.321 178.042 121.809C177.751 121.072 177.579 120.735 177.319 120.309C176.875 119.616 176.353 118.602 175.956 117.693C175.578 116.81 175.222 116.166 174.558 115.135C174.333 114.78 173.997 114.195 173.807 113.83C172.574 111.423 172.054 110.531 171.867 110.497C171.766 110.478 171.213 109.363 171.121 108.992C171.063 108.78 170.965 108.392 170.9 108.13C170.835 107.869 170.789 107.595 170.8 107.532C170.812 107.47 170.786 107.216 170.743 106.967C170.564 105.968 170.835 104.577 171.339 103.849C172.102 102.757 173.858 102.443 174.768 103.23C175.136 103.547 175.725 104.29 175.93 104.707C176.018 104.884 176.329 105.383 176.612 105.813C176.894 106.251 177.271 106.827 177.448 107.093C177.631 107.368 177.938 107.803 178.142 108.049C178.345 108.304 178.66 108.78 178.833 109.11C179.014 109.441 179.387 110.04 179.667 110.446C179.94 110.842 180.315 111.434 180.489 111.755C180.786 112.285 181.264 113.056 181.67 113.654C181.759 113.783 181.873 113.997 181.921 114.127C181.978 114.258 182.092 114.423 182.183 114.497C182.589 114.829 183.593 115.849 183.894 116.227C184.866 117.467 185.935 119.144 186.214 119.863C186.481 120.556 187.594 122.345 189.126 124.566C190.08 125.948 190.337 126.389 190.692 127.307C190.734 127.428 190.841 127.809 190.915 128.153C191.274 129.708 191.443 130.101 191.755 130.158C191.879 130.181 192.028 130.16 192.086 130.106C192.276 129.948 192.407 129.368 192.412 128.637C192.412 128.242 192.48 127.563 192.561 127.119C192.641 126.683 192.693 126.225 192.666 126.108C192.647 125.992 192.666 125.496 192.708 125.005C192.749 124.514 192.77 123.785 192.753 123.395C192.745 123 192.756 122.543 192.788 122.372C192.819 122.201 192.831 121.784 192.807 121.434C192.789 121.092 192.775 120.333 192.783 119.763C192.798 118.631 192.789 118.283 192.737 117.904C192.715 117.763 192.668 117.32 192.621 116.917C192.583 116.507 192.512 116.06 192.468 115.907C192.43 115.763 192.39 115.498 192.381 115.328C192.361 114.6 192.286 113.652 192.24 113.507C192.207 113.42 192.199 113.073 192.21 112.745C192.231 112.411 192.216 112.014 192.187 111.864C192.149 111.72 192.133 111.411 192.14 111.195C192.152 110.956 192.045 110.397 191.879 109.811C191.694 109.198 191.592 108.656 191.599 108.351C191.603 108.07 191.755 107.197 191.967 106.214C192.312 104.595 192.331 104.534 192.626 104.113C193.002 103.595 193.681 103.188 194.421 103.058C194.937 102.967 195.103 102.982 195.466 103.153ZM167.314 146.57C166.984 146.663 166.651 146.763 166.582 146.791C166.075 146.963 165.549 147.068 165.204 147.061C164.501 147.037 164.094 147.235 163.664 147.825C163.247 148.384 162.886 148.953 162.865 149.062C162.855 149.117 162.735 149.377 162.594 149.624C162.327 150.114 161.983 150.406 161.371 150.672C160.56 151.014 159.769 151.465 159.692 151.619C159.497 152.026 159.754 152.427 160.601 153.074C161.131 153.477 161.577 154.162 162.092 155.343C162.17 155.534 162.594 156.208 163.017 156.84C163.44 157.474 163.851 158.129 163.926 158.295C164.209 158.942 164.347 159.419 164.314 159.598C164.232 160.049 164.293 160.286 164.545 160.533C164.689 160.672 164.902 160.824 165.021 160.878C165.209 160.953 165.394 161.083 166.29 161.771C166.402 161.863 166.602 162.045 166.73 162.181C166.858 162.317 167.062 162.524 167.186 162.635C167.31 162.746 167.62 163.036 167.88 163.285C168.452 163.849 169.589 164.806 169.69 164.824C169.737 164.833 169.805 164.902 169.848 164.973C169.976 165.198 170.855 165.319 171.371 165.181C171.744 165.08 172.623 164.589 173.404 164.056C173.525 163.966 173.88 163.741 174.18 163.555C174.48 163.368 175.065 162.944 175.477 162.625C175.883 162.298 176.267 162.006 176.321 161.975C176.731 161.713 178.216 160.287 178.483 159.885C178.689 159.593 178.75 159.129 178.617 158.887C178.558 158.772 178.362 158.349 178.186 157.947C178.01 157.545 177.836 157.175 177.808 157.113C177.504 156.575 177.24 155.995 177.106 155.584C177.019 155.311 176.911 155.025 176.869 154.945C176.818 154.871 176.788 154.77 176.796 154.731C176.828 154.552 175.95 153.111 175.454 152.521C175.388 152.445 175.184 152.198 175.006 151.98C174.677 151.582 174.08 151.062 173.917 151.032C173.73 150.998 171.943 149.68 171.429 149.192C171.21 148.983 171.008 148.809 170.977 148.803C170.954 148.799 170.822 148.686 170.691 148.565C170.554 148.436 170.17 148.067 169.828 147.739C168.801 146.754 168.47 146.5 168.144 146.433C168.02 146.41 167.646 146.47 167.314 146.57Z" fill="#FFB79F"/>
<path d="M185.102 208.381L218.391 195.51L210.277 174.527L209.755 173.174L176.466 186.045L185.102 208.381Z" fill="white"/>
<path d="M190.086 165.339L150.359 142.774L147.6 147.563L187.551 169.858L189.915 167.851L190.086 165.339Z" fill="black"/>
<path d="M215.846 184.125L202.061 189.607L196.69 191.743L193.797 192.894L193.806 192.896L177.535 199.361L192.248 232.086L238.299 231.942C230.818 216.003 223.334 200.064 215.846 184.125ZM215.88 188.993V188.995V188.993L215.871 188.995L215.871 188.993H215.88ZM218.755 199.06C218.698 199.357 218.602 199.535 218.453 199.535C218.45 199.534 218.447 199.534 218.443 199.534L218.436 199.536C218.587 199.534 218.687 199.356 218.746 199.06H218.755Z" fill="black"/>
<path d="M148.076 147.885L142.742 141.864C145.372 142.26 148.003 142.656 150.633 143.053L148.076 147.885Z" fill="black"/>
</g>
<defs>
<clipPath id="clip0_209_262">
<rect width="321" height="229" fill="white"/>
</clipPath>
</defs>
</svg>
