<svg width="254" height="195" viewBox="0 0 254 195" fill="none" xmlns="http://www.w3.org/2000/svg">
<path d="M20.468 13.664L12.916 28.224V36H8.436V28.224L0.852 13.664H5.908L10.708 23.872L15.476 13.664H20.468ZM30.7318 36.288C29.0251 36.288 27.4891 35.9147 26.1238 35.168C24.7584 34.4 23.6811 33.3227 22.8918 31.936C22.1238 30.5493 21.7398 28.9493 21.7398 27.136C21.7398 25.3227 22.1344 23.7227 22.9238 22.336C23.7344 20.9493 24.8331 19.8827 26.2198 19.136C27.6064 18.368 29.1531 17.984 30.8598 17.984C32.5664 17.984 34.1131 18.368 35.4998 19.136C36.8864 19.8827 37.9744 20.9493 38.7638 22.336C39.5744 23.7227 39.9798 25.3227 39.9798 27.136C39.9798 28.9493 39.5638 30.5493 38.7318 31.936C37.9211 33.3227 36.8118 34.4 35.4038 35.168C34.0171 35.9147 32.4598 36.288 30.7318 36.288ZM30.7318 32.384C31.5424 32.384 32.2998 32.192 33.0038 31.808C33.7291 31.4027 34.3051 30.8053 34.7318 30.016C35.1584 29.2267 35.3718 28.2667 35.3718 27.136C35.3718 25.4507 34.9238 24.16 34.0278 23.264C33.1531 22.3467 32.0758 21.888 30.7958 21.888C29.5158 21.888 28.4384 22.3467 27.5638 23.264C26.7104 24.16 26.2838 25.4507 26.2838 27.136C26.2838 28.8213 26.6998 30.1227 27.5318 31.04C28.3851 31.936 29.4518 32.384 30.7318 32.384ZM59.81 18.272V36H55.298V33.76C54.722 34.528 53.9647 35.136 53.026 35.584C52.1087 36.0107 51.106 36.224 50.018 36.224C48.6313 36.224 47.4047 35.936 46.338 35.36C45.2713 34.7627 44.4287 33.8987 43.81 32.768C43.2127 31.616 42.914 30.2507 42.914 28.672V18.272H47.394V28.032C47.394 29.44 47.746 30.528 48.45 31.296C49.154 32.0427 50.114 32.416 51.33 32.416C52.5673 32.416 53.538 32.0427 54.242 31.296C54.946 30.528 55.298 29.44 55.298 28.032V18.272H59.81ZM68.5182 21.024C69.0943 20.0853 69.8409 19.3493 70.7583 18.816C71.6969 18.2827 72.7636 18.016 73.9583 18.016V22.72H72.7743C71.3663 22.72 70.2996 23.0507 69.5743 23.712C68.8703 24.3733 68.5182 25.5253 68.5182 27.168V36H64.0382V18.272H68.5182V21.024ZM10.42 78.224C8.86267 78.224 7.45467 77.9573 6.196 77.424C4.95867 76.8907 3.97733 76.1227 3.252 75.12C2.52667 74.1173 2.15333 72.9333 2.132 71.568H6.932C6.996 72.4853 7.316 73.2107 7.892 73.744C8.48933 74.2773 9.3 74.544 10.324 74.544C11.3693 74.544 12.1907 74.2987 12.788 73.808C13.3853 73.296 13.684 72.6347 13.684 71.824C13.684 71.1627 13.4813 70.6187 13.076 70.192C12.6707 69.7653 12.1587 69.4347 11.54 69.2C10.9427 68.944 10.1107 68.6667 9.044 68.368C7.59333 67.9413 6.40933 67.5253 5.492 67.12C4.596 66.6933 3.81733 66.064 3.156 65.232C2.516 64.3787 2.196 63.248 2.196 61.84C2.196 60.5173 2.52667 59.3653 3.188 58.384C3.84933 57.4027 4.77733 56.656 5.972 56.144C7.16667 55.6107 8.532 55.344 10.068 55.344C12.372 55.344 14.2387 55.9093 15.668 57.04C17.1187 58.1493 17.9187 59.7067 18.068 61.712H13.14C13.0973 60.944 12.7667 60.3147 12.148 59.824C11.5507 59.312 10.7507 59.056 9.748 59.056C8.87333 59.056 8.16933 59.28 7.636 59.728C7.124 60.176 6.868 60.8267 6.868 61.68C6.868 62.2773 7.06 62.7787 7.444 63.184C7.84933 63.568 8.34 63.888 8.916 64.144C9.51333 64.3787 10.3453 64.656 11.412 64.976C12.8627 65.4027 14.0467 65.8293 14.964 66.256C15.8813 66.6827 16.6707 67.3227 17.332 68.176C17.9933 69.0293 18.324 70.1493 18.324 71.536C18.324 72.7307 18.0147 73.84 17.396 74.864C16.7773 75.888 15.8707 76.7093 14.676 77.328C13.4813 77.9253 12.0627 78.224 10.42 78.224ZM29.888 78.288C28.1813 78.288 26.6453 77.9147 25.28 77.168C23.9147 76.4 22.8373 75.3227 22.048 73.936C21.28 72.5493 20.896 70.9493 20.896 69.136C20.896 67.3227 21.2907 65.7227 22.08 64.336C22.8907 62.9493 23.9893 61.8827 25.376 61.136C26.7627 60.368 28.3093 59.984 30.016 59.984C31.7227 59.984 33.2693 60.368 34.656 61.136C36.0427 61.8827 37.1307 62.9493 37.92 64.336C38.7307 65.7227 39.136 67.3227 39.136 69.136C39.136 70.9493 38.72 72.5493 37.888 73.936C37.0773 75.3227 35.968 76.4 34.56 77.168C33.1733 77.9147 31.616 78.288 29.888 78.288ZM29.888 74.384C30.6987 74.384 31.456 74.192 32.16 73.808C32.8853 73.4027 33.4613 72.8053 33.888 72.016C34.3147 71.2267 34.528 70.2667 34.528 69.136C34.528 67.4507 34.08 66.16 33.184 65.264C32.3093 64.3467 31.232 63.888 29.952 63.888C28.672 63.888 27.5947 64.3467 26.72 65.264C25.8667 66.16 25.44 67.4507 25.44 69.136C25.44 70.8213 25.856 72.1227 26.688 73.04C27.5413 73.936 28.608 74.384 29.888 74.384ZM46.7103 54.32V78H42.2303V54.32H46.7103ZM67.6805 60.272V78H63.1685V75.76C62.5925 76.528 61.8352 77.136 60.8965 77.584C59.9792 78.0107 58.9765 78.224 57.8885 78.224C56.5018 78.224 55.2752 77.936 54.2085 77.36C53.1418 76.7627 52.2992 75.8987 51.6805 74.768C51.0832 73.616 50.7845 72.2507 50.7845 70.672V60.272H55.2645V70.032C55.2645 71.44 55.6165 72.528 56.3205 73.296C57.0245 74.0427 57.9845 74.416 59.2005 74.416C60.4378 74.416 61.4085 74.0427 62.1125 73.296C62.8165 72.528 63.1685 71.44 63.1685 70.032V60.272H67.6805ZM77.1248 63.952V72.528C77.1248 73.1253 77.2634 73.5627 77.5408 73.84C77.8394 74.096 78.3301 74.224 79.0128 74.224H81.0928V78H78.2768C74.5008 78 72.6128 76.1653 72.6128 72.496V63.952H70.5008V60.272H72.6128V55.888H77.1248V60.272H81.0928V63.952H77.1248ZM86.395 58.16C85.6057 58.16 84.9443 57.9147 84.411 57.424C83.899 56.912 83.643 56.2827 83.643 55.536C83.643 54.7893 83.899 54.1707 84.411 53.68C84.9443 53.168 85.6057 52.912 86.395 52.912C87.1843 52.912 87.835 53.168 88.347 53.68C88.8803 54.1707 89.147 54.7893 89.147 55.536C89.147 56.2827 88.8803 56.912 88.347 57.424C87.835 57.9147 87.1843 58.16 86.395 58.16ZM88.603 60.272V78H84.123V60.272H88.603ZM100.709 78.288C99.0026 78.288 97.4666 77.9147 96.1012 77.168C94.7359 76.4 93.6586 75.3227 92.8692 73.936C92.1012 72.5493 91.7172 70.9493 91.7172 69.136C91.7172 67.3227 92.1119 65.7227 92.9012 64.336C93.7119 62.9493 94.8106 61.8827 96.1972 61.136C97.5839 60.368 99.1306 59.984 100.837 59.984C102.544 59.984 104.091 60.368 105.477 61.136C106.864 61.8827 107.952 62.9493 108.741 64.336C109.552 65.7227 109.957 67.3227 109.957 69.136C109.957 70.9493 109.541 72.5493 108.709 73.936C107.899 75.3227 106.789 76.4 105.381 77.168C103.995 77.9147 102.437 78.288 100.709 78.288ZM100.709 74.384C101.52 74.384 102.277 74.192 102.981 73.808C103.707 73.4027 104.283 72.8053 104.709 72.016C105.136 71.2267 105.349 70.2667 105.349 69.136C105.349 67.4507 104.901 66.16 104.005 65.264C103.131 64.3467 102.053 63.888 100.773 63.888C99.4932 63.888 98.4159 64.3467 97.5412 65.264C96.6879 66.16 96.2613 67.4507 96.2613 69.136C96.2613 70.8213 96.6772 72.1227 97.5092 73.04C98.3626 73.936 99.4293 74.384 100.709 74.384ZM122.875 60.016C124.987 60.016 126.694 60.688 127.995 62.032C129.297 63.3547 129.947 65.2107 129.947 67.6V78H125.467V68.208C125.467 66.8 125.115 65.7227 124.411 64.976C123.707 64.208 122.747 63.824 121.531 63.824C120.294 63.824 119.313 64.208 118.587 64.976C117.883 65.7227 117.531 66.8 117.531 68.208V78H113.051V60.272H117.531V62.48C118.129 61.712 118.886 61.1147 119.803 60.688C120.742 60.24 121.766 60.016 122.875 60.016ZM10.836 105.952H7.732V120H3.188V105.952H1.172V102.272H3.188V101.376C3.188 99.2 3.80667 97.6 5.044 96.576C6.28133 95.552 8.148 95.072 10.644 95.136V98.912C9.556 98.8907 8.79867 99.072 8.372 99.456C7.94533 99.84 7.732 100.533 7.732 101.536V102.272H10.836V105.952ZM21.4193 120.288C19.7126 120.288 18.1766 119.915 16.8112 119.168C15.4459 118.4 14.3686 117.323 13.5792 115.936C12.8112 114.549 12.4272 112.949 12.4272 111.136C12.4272 109.323 12.8219 107.723 13.6112 106.336C14.4219 104.949 15.5206 103.883 16.9072 103.136C18.2939 102.368 19.8406 101.984 21.5472 101.984C23.2539 101.984 24.8006 102.368 26.1873 103.136C27.5739 103.883 28.6619 104.949 29.4513 106.336C30.2619 107.723 30.6673 109.323 30.6673 111.136C30.6673 112.949 30.2513 114.549 29.4192 115.936C28.6086 117.323 27.4993 118.4 26.0913 119.168C24.7046 119.915 23.1473 120.288 21.4193 120.288ZM21.4193 116.384C22.2299 116.384 22.9873 116.192 23.6912 115.808C24.4166 115.403 24.9926 114.805 25.4193 114.016C25.8459 113.227 26.0592 112.267 26.0592 111.136C26.0592 109.451 25.6112 108.16 24.7153 107.264C23.8406 106.347 22.7632 105.888 21.4832 105.888C20.2032 105.888 19.1259 106.347 18.2512 107.264C17.3979 108.16 16.9713 109.451 16.9713 111.136C16.9713 112.821 17.3872 114.123 18.2192 115.04C19.0726 115.936 20.1393 116.384 21.4193 116.384ZM38.2415 105.024C38.8175 104.085 39.5642 103.349 40.4815 102.816C41.4202 102.283 42.4868 102.016 43.6815 102.016V106.72H42.4975C41.0895 106.72 40.0228 107.051 39.2975 107.712C38.5935 108.373 38.2415 109.525 38.2415 111.168V120H33.7615V102.272H38.2415V105.024ZM83.796 97.664L77.556 120H72.276L68.084 104.096L63.7 120L58.452 120.032L52.436 97.664H57.236L61.172 115.008L65.716 97.664H70.708L74.996 114.912L78.964 97.664H83.796ZM85.3773 111.072C85.3773 109.28 85.7293 107.691 86.4333 106.304C87.1586 104.917 88.1293 103.851 89.3453 103.104C90.5826 102.357 91.9586 101.984 93.4733 101.984C94.7959 101.984 95.9479 102.251 96.9293 102.784C97.9319 103.317 98.7319 103.989 99.3293 104.8V102.272H103.841V120H99.3293V117.408C98.7533 118.24 97.9533 118.933 96.9293 119.488C95.9266 120.021 94.7639 120.288 93.4413 120.288C91.9479 120.288 90.5826 119.904 89.3453 119.136C88.1293 118.368 87.1586 117.291 86.4333 115.904C85.7293 114.496 85.3773 112.885 85.3773 111.072ZM99.3293 111.136C99.3293 110.048 99.1159 109.12 98.6893 108.352C98.2626 107.563 97.6866 106.965 96.9613 106.56C96.2359 106.133 95.4573 105.92 94.6253 105.92C93.7933 105.92 93.0253 106.123 92.3213 106.528C91.6173 106.933 91.0413 107.531 90.5933 108.32C90.1666 109.088 89.9533 110.005 89.9533 111.072C89.9533 112.139 90.1666 113.077 90.5933 113.888C91.0413 114.677 91.6173 115.285 92.3213 115.712C93.0466 116.139 93.8146 116.352 94.6253 116.352C95.4573 116.352 96.2359 116.149 96.9613 115.744C97.6866 115.317 98.2626 114.72 98.6893 113.952C99.1159 113.163 99.3293 112.224 99.3293 111.136ZM114.809 120.288C113.358 120.288 112.057 120.032 110.905 119.52C109.753 118.987 108.835 118.272 108.153 117.376C107.491 116.48 107.129 115.488 107.065 114.4H111.577C111.662 115.083 111.993 115.648 112.569 116.096C113.166 116.544 113.902 116.768 114.777 116.768C115.63 116.768 116.291 116.597 116.761 116.256C117.251 115.915 117.497 115.477 117.497 114.944C117.497 114.368 117.198 113.941 116.601 113.664C116.025 113.365 115.097 113.045 113.817 112.704C112.494 112.384 111.406 112.053 110.553 111.712C109.721 111.371 108.995 110.848 108.377 110.144C107.779 109.44 107.481 108.491 107.481 107.296C107.481 106.315 107.758 105.419 108.313 104.608C108.889 103.797 109.699 103.157 110.745 102.688C111.811 102.219 113.059 101.984 114.489 101.984C116.601 101.984 118.286 102.517 119.545 103.584C120.803 104.629 121.497 106.048 121.625 107.84H117.337C117.273 107.136 116.974 106.581 116.441 106.176C115.929 105.749 115.235 105.536 114.361 105.536C113.55 105.536 112.921 105.685 112.473 105.984C112.046 106.283 111.833 106.699 111.833 107.232C111.833 107.829 112.131 108.288 112.729 108.608C113.326 108.907 114.254 109.216 115.513 109.536C116.793 109.856 117.849 110.187 118.681 110.528C119.513 110.869 120.227 111.403 120.825 112.128C121.443 112.832 121.763 113.771 121.785 114.944C121.785 115.968 121.497 116.885 120.921 117.696C120.366 118.507 119.555 119.147 118.489 119.616C117.443 120.064 116.217 120.288 114.809 120.288ZM130.486 105.952V114.528C130.486 115.125 130.625 115.563 130.902 115.84C131.201 116.096 131.692 116.224 132.374 116.224H134.454V120H131.638C127.862 120 125.974 118.165 125.974 114.496V105.952H123.862V102.272H125.974V97.888H130.486V102.272H134.454V105.952H130.486ZM153.965 110.752C153.965 111.392 153.922 111.968 153.837 112.48H140.877C140.983 113.76 141.431 114.763 142.221 115.488C143.01 116.213 143.981 116.576 145.133 116.576C146.797 116.576 147.981 115.861 148.685 114.432H153.517C153.005 116.139 152.023 117.547 150.573 118.656C149.122 119.744 147.341 120.288 145.229 120.288C143.522 120.288 141.986 119.915 140.621 119.168C139.277 118.4 138.221 117.323 137.453 115.936C136.706 114.549 136.333 112.949 136.333 111.136C136.333 109.301 136.706 107.691 137.453 106.304C138.199 104.917 139.245 103.851 140.589 103.104C141.933 102.357 143.479 101.984 145.229 101.984C146.914 101.984 148.418 102.347 149.741 103.072C151.085 103.797 152.119 104.832 152.845 106.176C153.591 107.499 153.965 109.024 153.965 110.752ZM149.325 109.472C149.303 108.32 148.887 107.403 148.077 106.72C147.266 106.016 146.274 105.664 145.101 105.664C143.991 105.664 143.053 106.005 142.285 106.688C141.538 107.349 141.079 108.277 140.909 109.472H149.325Z" fill="white"/>
<path d="M82.5 13L90.3042 7.23165C92.7487 5.42488 95.4943 4.06617 98.4135 3.21867L101.149 2.42451C106.461 0.882406 112.178 1.6863 116.859 4.63329V4.63329C120.818 7.12636 123.741 10.9694 125.085 15.4511L126.751 21.0018C127.249 22.665 127.623 24.3631 127.869 26.0819L130 41L130.965 49.0438C131.27 51.5864 133.427 53.5 135.988 53.5V53.5C136.656 53.5 137.317 53.3677 137.934 53.1108L149 48.5C151.854 47.3107 155 49.4078 155 52.5V52.5V64.1174C155 65.7027 155.141 67.2848 155.42 68.8453L156.461 74.6587C158.837 87.9252 172.556 95.8842 185.252 91.3622L193.413 88.4557C195.931 87.5589 198.738 88.1143 200.725 89.9025V89.9025C201.878 90.9403 202.67 92.3193 202.984 93.8385L205.5 106L209.5 123" stroke="white" stroke-width="2.5"/>
<path fill-rule="evenodd" clip-rule="evenodd" d="M160.651 26.1982C160.517 26.1644 160.375 26.1805 160.251 26.2435C160.128 26.3065 160.032 26.4122 159.981 26.5408L158.803 29.4845L155.858 30.6645C155.777 30.6971 155.705 30.7479 155.646 30.813C155.588 30.8781 155.545 30.9558 155.521 31.04C155.498 31.1243 155.494 31.2128 155.51 31.2988C155.526 31.3849 155.561 31.4661 155.614 31.5362L157.353 33.8569L156.15 38.6683C156.117 38.8009 156.133 38.9408 156.195 39.0628C156.256 39.1848 156.359 39.2807 156.485 39.3332L160.131 40.8532L161.939 43.5647C162.006 43.6654 162.103 43.7421 162.217 43.7838C162.33 43.8256 162.454 43.8301 162.571 43.7969L167.011 42.5281L167.034 42.5205L170.841 41.2516C170.934 41.2204 171.018 41.1654 171.084 41.092C171.151 41.0186 171.196 40.9293 171.218 40.8329L172.487 35.1232C172.51 35.0161 172.503 34.9045 172.465 34.8017C172.427 34.6989 172.36 34.6092 172.272 34.5433L169.963 32.8114V29.9248C169.963 29.8188 169.933 29.715 169.877 29.6249C169.821 29.5348 169.742 29.462 169.647 29.4147L165.84 27.5114C165.803 27.4928 165.764 27.478 165.724 27.467L160.651 26.1982ZM169.307 33.7465L171.011 35.0242L167.759 37.7332C167.677 37.8013 167.616 37.891 167.582 37.992L166.542 41.1095L164.62 39.9079C164.556 39.8682 164.485 39.8414 164.411 39.829C164.337 39.8167 164.261 39.819 164.188 39.8359C164.115 39.8528 164.046 39.884 163.985 39.9276C163.924 39.9712 163.872 40.0264 163.832 40.09C163.793 40.1537 163.766 40.2245 163.754 40.2985C163.741 40.3725 163.744 40.4483 163.76 40.5214C163.777 40.5945 163.808 40.6635 163.852 40.7246C163.896 40.7857 163.951 40.8376 164.015 40.8773L165.464 41.782L162.659 42.5839L160.985 40.0754C160.922 39.9822 160.834 39.9094 160.731 39.8661L157.377 38.4691L158.419 34.3022H161.146C161.221 34.3022 161.295 34.2875 161.364 34.2588C161.433 34.2301 161.496 34.188 161.549 34.135C161.602 34.082 161.644 34.019 161.673 33.9498C161.702 33.8805 161.717 33.8062 161.717 33.7313C161.717 33.6563 161.702 33.582 161.673 33.5128C161.644 33.4435 161.602 33.3805 161.549 33.3275C161.496 33.2745 161.433 33.2324 161.364 33.2037C161.295 33.175 161.221 33.1603 161.146 33.1603H158.259L156.974 31.4474L159.26 30.5325L162.869 31.7354C162.979 31.7721 163.099 31.774 163.211 31.7409C163.322 31.7078 163.421 31.6412 163.494 31.5501L165.744 28.7384L168.822 30.2775V32.7098L166.009 33.8353C165.932 33.8661 165.862 33.9135 165.805 33.974C165.748 34.0344 165.705 34.1066 165.679 34.1855L165.045 36.0887C165.021 36.16 165.011 36.2354 165.016 36.3105C165.021 36.3856 165.041 36.4589 165.074 36.5263C165.108 36.5937 165.154 36.6538 165.211 36.7032C165.268 36.7525 165.334 36.7902 165.405 36.8139C165.477 36.8377 165.552 36.8471 165.627 36.8416C165.702 36.8361 165.776 36.8158 165.843 36.7819C165.91 36.748 165.97 36.7011 166.019 36.644C166.068 36.5869 166.105 36.5207 166.128 36.4491L166.678 34.7971L169.307 33.7465ZM164.585 28.359L162.852 30.5262L159.997 29.5746L160.856 27.4277L164.585 28.359ZM167.758 41.0765L170.175 40.2708L171.011 36.51L168.614 38.5071L167.758 41.0765Z" fill="white"/>
<path d="M218.5 156.063L202.021 139.583L221.417 127.479L239.354 139.583L218.5 156.063Z" fill="#FF8A65"/>
<path d="M218.5 156.063L202.021 139.583L208.292 131.854L239.354 139.583L218.5 156.063Z" fill="#FFAB91"/>
<path d="M228.125 189.167H208.875C205.958 189.167 203.479 187.125 203.042 184.208L196.625 141.042H240.375L233.813 184.208C233.375 187.125 230.896 189.167 228.125 189.167Z" fill="#B39DDB"/>
<path d="M238.917 143.958H198.083C196.479 143.958 195.167 142.646 195.167 141.042C195.167 139.438 196.479 138.125 198.083 138.125H238.917C240.521 138.125 241.833 139.438 241.833 141.042C241.833 142.646 240.521 143.958 238.917 143.958Z" fill="#7E57C2"/>
<path fill-rule="evenodd" clip-rule="evenodd" d="M212.51 66.3232L207.283 64.2462C205.263 64.2509 203.803 64.881 202.9 66.1365L198.746 76.5915C198.416 77.4234 198.429 78.3524 198.784 79.1743C199.138 79.9963 199.805 80.6437 200.637 80.9742L205.864 83.0512C206.696 83.3817 207.625 83.3682 208.447 83.0137C209.269 82.6592 209.916 81.9927 210.247 81.1609L214.401 70.7059C214.606 69.1734 213.976 67.7125 212.51 66.3232ZM199.792 77.0069L203.89 66.6909C204.54 65.8597 205.57 65.4154 207.076 65.3744L211.886 67.2856C212.953 68.3486 213.397 69.3785 213.299 70.4291L209.2 80.7451C208.98 81.2996 208.548 81.7439 208 81.9803C207.452 82.2166 206.833 82.2256 206.278 82.0053L201.051 79.9283C200.496 79.7079 200.052 79.2763 199.816 78.7284C199.579 78.1804 199.571 77.5615 199.792 77.0069Z" fill="white"/>
<path fill-rule="evenodd" clip-rule="evenodd" d="M203.645 71.8798C203.204 72.9889 203.222 74.2277 203.695 75.3235C204.167 76.4194 205.056 77.2827 206.165 77.7233C207.274 78.164 208.513 78.1461 209.609 77.6734C210.705 77.2007 211.568 76.3121 212.009 75.2029C212.449 74.0938 212.431 72.855 211.959 71.7591C211.486 70.6633 210.597 69.8 209.488 69.3593C208.379 68.9187 207.14 68.9366 206.044 69.4093C204.949 69.882 204.085 70.7706 203.645 71.8798ZM210.963 74.7875C210.8 75.1994 210.556 75.575 210.248 75.893C209.939 76.2109 209.57 76.4648 209.163 76.6404C208.756 76.8159 208.319 76.9096 207.876 76.916C207.432 76.9224 206.992 76.8415 206.58 76.6778C206.169 76.5142 205.793 76.271 205.475 75.9622C205.157 75.6534 204.903 75.285 204.728 74.878C204.552 74.471 204.458 74.0335 204.452 73.5903C204.446 73.1471 204.527 72.707 204.69 72.2952C205.021 71.4633 205.668 70.7968 206.49 70.4423C207.312 70.0878 208.241 70.0743 209.073 70.4048C209.905 70.7354 210.571 71.3828 210.926 72.2047C211.28 73.0266 211.294 73.9557 210.963 74.7875Z" fill="white"/>
<path d="M210.193 70.8562L211.156 71.4372C210.564 72.4196 209.648 73.1838 208.424 73.729C207.203 74.2739 205.764 74.4396 204.119 74.2386L204.256 73.1215C205.71 73.2995 206.943 73.1564 207.967 72.7012C208.989 72.2465 209.725 71.6325 210.193 70.8562Z" fill="white"/>
<path d="M211.06 72.5403C211.076 72.4684 211.107 72.4004 211.15 72.3404C211.193 72.2803 211.247 72.2293 211.31 72.1902C211.373 72.1512 211.443 72.1249 211.516 72.1128C211.588 72.1008 211.663 72.1032 211.735 72.1199C211.807 72.1367 211.875 72.1674 211.935 72.2104C211.995 72.2534 212.046 72.3079 212.085 72.3706C212.124 72.4333 212.15 72.5031 212.163 72.576C212.175 72.6489 212.172 72.7234 212.155 72.7954C211.879 73.981 211.378 74.8424 210.637 75.3493C209.774 75.9372 208.763 76.0658 207.876 75.9579C207.773 75.9446 207.613 75.9199 207.369 75.8787L206.674 75.761L206.549 75.7404C206.313 75.6998 206.076 75.6623 205.839 75.628C205.577 75.5929 205.088 75.5535 204.384 75.5133C204.235 75.5048 204.095 75.4375 203.996 75.3262C203.896 75.2149 203.845 75.0686 203.854 74.9197C203.862 74.7707 203.93 74.6312 204.041 74.5318C204.152 74.4325 204.299 74.3814 204.447 74.3899C205.181 74.432 205.693 74.473 205.994 74.5139C206.184 74.5411 206.422 74.5787 206.734 74.6302L206.86 74.6513L207.554 74.7696C207.783 74.8071 207.93 74.8303 208.013 74.8404C208.653 74.9193 209.412 74.8225 210.002 74.42C210.483 74.0909 210.842 73.4745 211.06 72.5403Z" fill="white"/>
</svg>
