<svg width="24" height="24" viewBox="0 0 24 24" fill="none" xmlns="http://www.w3.org/2000/svg">
<path d="M23.0936 9.91355L13.3042 9.91309C12.8719 9.91309 12.5215 10.2634 12.5215 10.6957V13.823C12.5215 14.2552 12.8719 14.6056 13.3041 14.6056H18.8169C18.2133 16.1722 17.0866 17.4842 15.6491 18.3178L17.9997 22.387C21.7705 20.2062 23.9998 16.3799 23.9998 12.0965C23.9998 11.4866 23.9548 11.0506 23.8649 10.5597C23.7966 10.1867 23.4728 9.91355 23.0936 9.91355Z" fill="#167EE6"/>
<path d="M11.9984 19.3043C9.30051 19.3043 6.94531 17.8303 5.68038 15.649L1.61133 17.9944C3.68204 21.5832 7.56116 24 11.9984 24C14.1751 24 16.229 23.4139 17.9984 22.3925V22.387L15.6477 18.3177C14.5725 18.9414 13.3283 19.3043 11.9984 19.3043Z" fill="#12B347"/>
<path d="M18 22.3925V22.387L15.6494 18.3177C14.5742 18.9413 13.33 19.3043 12 19.3043V24C14.1767 24 16.2308 23.4139 18 22.3925Z" fill="#0F993E"/>
<path d="M4.69568 12C4.69568 10.6702 5.05859 9.42613 5.68208 8.35096L1.61302 6.00562C0.586034 7.76938 0 9.81773 0 12C0 14.1824 0.586034 16.2307 1.61302 17.9945L5.68208 15.6491C5.05859 14.5739 4.69568 13.3298 4.69568 12Z" fill="#FFD500"/>
<path d="M11.9984 4.69566C13.7576 4.69566 15.3736 5.32078 16.6358 6.36061C16.9472 6.61711 17.3998 6.59859 17.685 6.31336L19.9008 4.09758C20.2245 3.77395 20.2014 3.24422 19.8557 2.94431C17.7409 1.10967 14.9893 0 11.9984 0C7.56115 0 3.68204 2.41673 1.61133 6.00558L5.68038 8.35092C6.94531 6.16969 9.30051 4.69566 11.9984 4.69566Z" fill="#FF4B26"/>
<path d="M16.6375 6.36061C16.9489 6.61711 17.4015 6.5986 17.6867 6.31336L19.9025 4.09758C20.226 3.77395 20.203 3.24422 19.8573 2.94431C17.7425 1.10963 14.991 0 12 0V4.69566C13.7592 4.69566 15.3753 5.32078 16.6375 6.36061Z" fill="#D93F21"/>
</svg>
