<svg width="18" height="18" viewBox="0 0 18 18" fill="none" xmlns="http://www.w3.org/2000/svg">
<path d="M10.8683 11.625H10.875M7.125 11.625H7.13175M3.201 14.1338C3.36975 15.3863 4.407 16.368 5.67 16.4258C6.732 16.4745 7.81125 16.5 9 16.5C10.1888 16.5 11.268 16.4745 12.33 16.425C13.593 16.368 14.6303 15.3863 14.799 14.1338C14.9093 13.3163 15 12.4785 15 11.625C15 10.7715 14.9093 9.93379 14.799 9.11629C14.6303 7.86379 13.593 6.88204 12.33 6.82429C11.2207 6.7736 10.1104 6.74884 9 6.75004C7.81125 6.75004 6.732 6.77554 5.67 6.82504C4.407 6.88204 3.36975 7.86379 3.201 9.11629C3.09 9.93379 3 10.7715 3 11.625C3 12.4785 3.09075 13.3163 3.201 14.1338Z" stroke="#72777A" stroke-width="1.5" stroke-linecap="round" stroke-linejoin="round"/>
<path d="M5.625 6.75V4.875C5.625 3.97989 5.98058 3.12145 6.61351 2.48851C7.24645 1.85558 8.10489 1.5 9 1.5C9.89511 1.5 10.7535 1.85558 11.3865 2.48851C12.0194 3.12145 12.375 3.97989 12.375 4.875V6.75" stroke="#72777A" stroke-width="1.5" stroke-linecap="round" stroke-linejoin="round"/>
</svg>
