<svg width="24" height="24" viewBox="0 0 24 24" fill="none" xmlns="http://www.w3.org/2000/svg">
<path d="M4 8C4 5.87827 4.84285 3.84344 6.34315 2.34315C7.84344 0.842855 9.87827 0 12 0C14.1217 0 16.1566 0.842855 17.6569 2.34315C19.1571 3.84344 20 5.87827 20 8V12.697L22 15.697V20H16.389C16.1615 20.9937 15.6036 21.8808 14.8064 22.5162C14.0091 23.1515 13.0199 23.4975 12.0005 23.4975C10.9811 23.4975 9.99185 23.1515 9.19465 22.5162C8.39744 21.8808 7.83946 20.9937 7.612 20H2V15.697L4 12.697V8ZM9.708 20C9.90238 20.4462 10.2228 20.826 10.6299 21.0928C11.0371 21.3595 11.5133 21.5016 12 21.5016C12.4867 21.5016 12.9629 21.3595 13.3701 21.0928C13.7772 20.826 14.0976 20.4462 14.292 20H9.708ZM12 2C10.4087 2 8.88258 2.63214 7.75736 3.75736C6.63214 4.88258 6 6.4087 6 8V13.303L4 16.303V18H20V16.303L18 13.303V8C18 6.4087 17.3679 4.88258 16.2426 3.75736C15.1174 2.63214 13.5913 2 12 2Z" fill="black"/>
</svg>
